<svg width="315" height="75" viewBox="0 0 315 75" fill="none" xmlns="http://www.w3.org/2000/svg">
<g clip-path="url(#clip0_40_177)">
<path fill-rule="evenodd" clip-rule="evenodd" d="M103.805 18.0001V74.3882H90.4011V20.8189L103.805 18.0001ZM65.6411 61.1203C69.3461 61.1203 72.3438 58.153 72.3438 54.4864C72.3438 50.8189 69.3461 47.8525 65.6411 47.8525C61.937 47.8525 58.9393 50.8189 58.9393 54.4864C58.9393 58.153 61.937 61.1203 65.6411 61.1203ZM65.6411 34.0132C77.0536 34.0132 86.324 43.1715 86.324 54.4864C86.324 65.8004 77.0527 74.9596 65.6411 74.9596C54.2112 74.9596 44.9582 65.8004 44.9582 54.4864C44.9582 43.1715 54.2295 34.0132 65.6411 34.0132ZM65.6411 79.7322C69.3427 79.7322 72.3438 82.7021 72.3438 86.3661C72.3438 90.0301 69.3427 93 65.6411 93C61.9404 93 58.9393 90.0301 58.9393 86.3661C58.9393 82.7021 61.9404 79.7322 65.6411 79.7322ZM35.8179 44.5727C39.0572 47.742 41.0676 52.1278 41.0484 56.9737C41.0484 66.593 33.1743 74.3881 23.4565 74.3881H0V18H20.8504C30.5682 18 38.4423 25.7951 38.4423 35.4135C38.4423 38.7676 37.4934 41.9188 35.8179 44.5727ZM23.4748 61.1203C25.7834 61.1203 27.6639 59.2589 27.6639 56.9737C27.6639 54.6893 25.7834 52.8279 23.4748 52.8279H13.4229V61.1203H23.4748ZM13.4229 31.2678V39.5601H20.8696C23.1774 39.5601 25.0569 37.6988 25.0569 35.4135C25.0569 33.1291 23.1774 31.2678 20.8696 31.2678H13.4229ZM129.123 48.0366H122.439V58.4484C122.439 61.5996 123.464 63.9211 126.144 63.9211C127.876 63.9211 129.141 63.5344 129.141 63.5344V73.3013C129.141 73.3013 126.368 74.9598 122.607 74.9598H122.439C122.273 74.9598 122.124 74.9408 121.955 74.9408H121.825C121.751 74.9408 121.657 74.9226 121.583 74.9226C114.099 74.535 109.017 69.873 109.017 61.7835V27.4529L122.421 24.6341V34.7688H129.123V48.0366Z" fill="#34D186"/>
<path fill-rule="evenodd" clip-rule="evenodd" d="M206.232 61.1214C209.944 61.1214 212.947 58.1541 212.947 54.4874C212.947 50.8199 209.944 47.8534 206.232 47.8534C202.52 47.8534 199.516 50.8199 199.516 54.4874C199.516 58.1541 202.52 61.1214 206.232 61.1214ZM206.232 34.0138C217.666 34.0138 226.955 43.1723 226.955 54.4874C226.955 65.8017 217.666 74.961 206.232 74.961C194.78 74.961 185.509 65.8017 185.509 54.4874C185.509 43.1723 194.798 34.0138 206.232 34.0138ZM250.087 61.1214C253.799 61.1214 256.802 58.1541 256.802 54.4874C256.802 50.8199 253.799 47.8534 250.087 47.8534C246.375 47.8534 243.372 50.8199 243.372 54.4874C243.372 58.1541 246.375 61.1214 250.087 61.1214ZM250.087 34.0138C261.521 34.0138 270.811 43.1723 270.811 54.4874C270.811 65.8017 261.521 74.961 250.087 74.961C238.635 74.961 229.364 65.8017 229.364 54.4874C229.364 43.1723 238.654 34.0138 250.087 34.0138ZM163.513 52.8381V74.3892H150.083V18H185.932V31.2862H163.513V39.5511H181.867V52.8381H163.513ZM301.049 70.9836C298.77 73.0768 295.847 74.3892 292.232 74.3892C281.734 74.3892 273.224 65.3516 273.224 54.2014C273.224 43.052 281.734 34.0135 292.232 34.0135C295.847 34.0135 298.77 35.3021 301.049 37.3722V18H314.479V74.3892H301.049V70.9836ZM293.763 60.8967C297.505 60.8967 300.54 57.8991 300.54 54.2014C300.54 50.5036 297.505 47.5069 293.763 47.5069C290.02 47.5069 286.986 50.5036 286.986 54.2014C286.986 57.8991 290.02 60.8967 293.763 60.8967Z" fill="#2F313F"/>
</g>
<defs>
<clipPath id="clip0_40_177">
<rect width="315" height="75" fill="white"/>
</clipPath>
</defs>
</svg>
