<svg width="184" height="60" viewBox="0 0 184 60" fill="none" xmlns="http://www.w3.org/2000/svg">
<path d="M41.24 1.8C34.36 13.28 27.44 24.76 19.24 35.32C17.32 37.8 15.36 40.24 13.24 42.52C12.24 43.56 11.2 44.6 10.04 45.48C9.32 46.04 6.32 48.44 5.32 47.76C4.56 47.24 4.68 44.32 4.68 43.52C4.64 41.6 4.8 39.72 5.12 37.84C5.64 34.72 6.44 31.64 7.36 28.6C9.52 21.6 12.56 14.88 16.4 8.64C17.36 7.12 14.04 4.12 13.24 5.48C9.32 11.8 6.16 18.56 3.96 25.68C2.84 29.28 1.88 33 1.36 36.76C0.88 40.12 0.64 44 1.96 47.2C3.08 49.8 5.6 51.96 8.56 51.28C11.68 50.52 14.52 47.72 16.64 45.44C21.92 39.76 26.44 33.28 30.76 26.84C35.68 19.52 40.24 11.96 44.76 4.4C45.6 3.04 42.28 0.119997 41.24 1.8ZM46.9469 32.56C43.7469 35.24 37.1869 38.76 34.4269 39.28C34.5069 38.96 34.6269 38.68 34.7469 38.4C35.5469 36.2 36.5869 34.24 37.7469 32.2C38.5469 30.84 35.1869 27.92 34.2269 29.64C32.7469 32.16 30.4669 35.64 30.5469 38.64C30.5869 41.32 33.1469 43.8 35.7869 43.24C38.1469 42.76 40.3469 41.16 42.3069 39.88C44.7069 38.24 47.0269 36.44 49.2269 34.56C50.5069 33.48 48.3069 31.4 46.9469 32.56ZM41.1069 25.4C41.9869 22.48 43.1869 19.68 44.6669 16.96C45.4269 15.6 42.0669 12.68 41.1069 14.4C39.6269 17.08 38.4669 19.88 37.5869 22.8C37.1069 24.4 40.5869 27.16 41.1069 25.4ZM55.7975 27.16C54.7975 29.72 53.6775 32.16 52.2775 34.52C51.5975 35.68 50.7975 36.84 49.9975 37.96C49.8775 38.12 49.6775 38.44 49.4375 38.76C49.5175 38.24 49.6375 37.76 49.6775 37.4C49.9975 35.8 50.4775 34.28 51.1175 32.76C51.7175 31.28 48.3175 28.44 47.5575 30.2C46.3575 33.08 45.6775 36.28 45.7575 39.44C45.7975 41.52 47.0375 44.84 49.7575 44.36C50.9175 44.16 51.6775 43.08 52.3575 42.2C53.3175 40.96 54.2375 39.64 55.0775 38.28C56.7975 35.6 58.1975 32.72 59.3175 29.76C59.9175 28.24 56.4775 25.4 55.7975 27.16ZM76.1266 32.56C72.9266 35.24 66.3666 38.76 63.6066 39.28C63.6866 38.96 63.8066 38.68 63.9266 38.4C64.7266 36.2 65.7666 34.24 66.9266 32.2C67.7266 30.84 64.3666 27.92 63.4066 29.64C61.9266 32.16 59.6466 35.64 59.7266 38.64C59.7666 41.32 62.3266 43.8 64.9666 43.24C67.3266 42.76 69.5266 41.16 71.4866 39.88C73.8866 38.24 76.2066 36.44 78.4066 34.56C79.6866 33.48 77.4866 31.4 76.1266 32.56ZM70.2866 25.4C71.1666 22.48 72.3666 19.68 73.8466 16.96C74.6066 15.6 71.2466 12.68 70.2866 14.4C68.8066 17.08 67.6466 19.88 66.7666 22.8C66.2866 24.4 69.7666 27.16 70.2866 25.4ZM118.615 43.24C114.655 45.88 110.175 47.76 105.495 48.6C103.655 48.96 101.695 49.08 99.8153 48.64C97.5753 48.12 96.9753 46.6 97.4553 44.32C98.4153 40.12 101.215 35.92 103.735 32.44C106.415 28.72 109.575 25.36 113.095 22.4C114.455 21.24 111.415 18.72 110.215 19.04C108.975 19.4 107.215 20.04 105.975 19.68C104.295 19.2 104.615 17.88 105.175 16.52C106.015 14.48 107.415 12.68 109.015 11.24C112.135 8.32 116.255 6.72 120.535 6.76C122.695 6.76 120.255 3.12 118.695 3.12C112.215 3.08 106.015 6.4 102.655 12C100.895 14.96 100.295 18.28 102.855 20.96C103.815 21.92 104.855 22.56 105.975 22.88C103.175 25.76 100.655 28.92 98.4953 32.36C95.8953 36.48 91.9353 42.4 94.4953 47.4C96.6553 51.56 101.615 52.92 105.975 52.48C111.655 51.88 117.055 49.56 121.775 46.44C123.095 45.56 120.095 42.24 118.615 43.24ZM146.749 32.28C144.189 34.6 136.949 40.04 132.829 40.52C132.789 40.52 132.749 40.52 132.669 40.52C132.869 39.48 133.069 38.48 133.429 37.44C133.789 36.4 134.149 35.4 134.309 34.32C134.389 34.12 134.389 33.92 134.349 33.68C134.309 32.96 133.549 32.12 132.749 31.56C132.269 31.2 131.709 31 131.229 31.12C130.829 31.24 130.469 31.36 130.109 31.48C128.149 28.96 124.669 28.44 121.989 30.48C118.549 33 116.349 37.2 115.429 41.28C115.149 42.6 117.069 44.92 118.509 44.36C122.629 42.72 125.669 39.16 129.309 36.76C128.949 37.92 128.789 39.08 129.189 40.36C129.749 42.28 131.469 43.96 133.509 44.2C135.549 44.44 137.549 43.36 139.189 42.36C142.829 40.2 146.069 37.36 149.189 34.56C150.429 33.4 148.069 31.08 146.749 32.28ZM122.069 36.84C122.109 36.8 122.109 36.76 122.149 36.72C122.869 35.76 123.709 34.84 124.629 34.08C125.189 33.56 125.869 33.04 126.629 32.88C126.869 32.84 127.149 32.8 127.429 32.72C127.429 32.76 127.429 32.76 127.469 32.76C125.549 33.92 123.829 35.4 122.069 36.84ZM181.203 14.76C174.803 11.4 166.763 11.32 159.523 11.44C160.603 9.16 161.643 6.92 162.723 4.72C163.403 3.28 160.043 0.399996 159.203 2.12C157.683 5.24 156.203 8.36 154.763 11.52C146.763 11.76 138.803 12.64 130.963 14.16C129.283 14.48 131.923 18 133.563 17.68C140.003 16.44 146.523 15.64 153.083 15.28C147.563 27.92 143.163 41.08 143.403 55C143.443 56.56 147.083 59.04 147.043 56.84C146.803 42.16 151.843 28.36 157.843 15.12C157.883 15.12 157.963 15.12 158.043 15.12C161.923 15.04 165.843 15.12 169.763 15.4C173.723 15.64 177.723 16.04 181.283 17.92C182.043 18.32 182.963 18.24 183.043 17.28C183.163 16.24 182.003 15.2 181.203 14.76ZM169.176 31.88C167.736 32.44 164.456 33.32 161.056 34.92C160.696 34.56 160.376 34.2 160.056 33.8C159.216 32.8 158.576 30.28 160.776 30.44C161.816 30.52 161.736 29.32 161.416 28.68C160.976 27.76 159.976 26.88 158.936 26.84C155.496 26.56 155.016 30.4 156.216 32.84C156.936 34.24 158.136 35.2 159.056 36.4C155.256 39.48 152.616 43.32 156.336 46.4C159.816 49.28 163.136 45 163.576 41.68C163.736 40.64 163.656 39.64 163.336 38.68C165.496 37.04 167.856 35.72 170.376 34.72C172.136 34.04 170.736 31.28 169.176 31.88Z" fill="url(#paint0_linear_57_32)"/>
<defs>
<linearGradient id="paint0_linear_57_32" x1="84.5" y1="3" x2="84.5" y2="74" gradientUnits="userSpaceOnUse">
<stop stop-color="#BC2021"/>
<stop offset="1" stop-color="#BC2021" stop-opacity="0"/>
</linearGradient>
</defs>
</svg>
