<svg width="35" height="35" viewBox="0 0 35 35" fill="none" xmlns="http://www.w3.org/2000/svg">
<path d="M30.0781 3.82812H4.92188C4.31689 3.82812 3.82812 4.31689 3.82812 4.92188V30.0781C3.82812 30.6831 4.31689 31.1719 4.92188 31.1719H30.0781C30.6831 31.1719 31.1719 30.6831 31.1719 30.0781V4.92188C31.1719 4.31689 30.6831 3.82812 30.0781 3.82812ZM23.1089 22.4868C23.2593 22.6646 23.1328 22.9346 22.9004 22.9346H20.8872C20.7266 22.9346 20.5728 22.8628 20.4668 22.7397L17.5 19.2021L14.5332 22.7397C14.4307 22.8628 14.2769 22.9346 14.1128 22.9346H12.0996C11.8672 22.9346 11.7407 22.6646 11.8911 22.4868L16.0713 17.5L11.8911 12.5132C11.8574 12.4736 11.8358 12.4251 11.8288 12.3736C11.8219 12.322 11.8298 12.2696 11.8518 12.2224C11.8737 12.1753 11.9088 12.1355 11.9527 12.1076C11.9966 12.0798 12.0476 12.0651 12.0996 12.0654H14.1128C14.2734 12.0654 14.4272 12.1372 14.5332 12.2603L17.5 15.7979L20.4668 12.2603C20.5693 12.1372 20.7231 12.0654 20.8872 12.0654H22.9004C23.1328 12.0654 23.2593 12.3354 23.1089 12.5132L18.9287 17.5L23.1089 22.4868V22.4868Z" fill="black"/>
</svg>
