<svg width="24" height="24" viewBox="0 0 24 24" fill="none" xmlns="http://www.w3.org/2000/svg">
<path d="M12 1.94434C6.20156 1.94434 1.5 6.42242 1.5 11.9453C1.5 17.4681 6.20156 21.9462 12 21.9462C17.7984 21.9462 22.5 17.4681 22.5 11.9453C22.5 6.42242 17.7984 1.94434 12 1.94434ZM12.1266 16.9011C9.54844 16.9011 8.0625 15.267 8.0625 12.5502V11.3827C8.0625 8.64584 9.54844 6.98944 12.1242 6.98944C14.3344 6.98944 15.9375 8.34447 15.9375 10.2799C15.9375 10.338 15.8883 10.3848 15.8273 10.3848H14.4984C14.4 10.3848 14.3203 10.3134 14.3109 10.2196C14.2172 9.11463 13.3734 8.35787 12.1312 8.35787C10.6008 8.35787 9.73828 9.44056 9.73828 11.3827V12.5569C9.73828 14.47 10.6031 15.5393 12.1312 15.5393C13.3687 15.5393 14.2102 14.8317 14.3109 13.8026C14.3203 13.711 14.4 13.6396 14.4984 13.6396H15.8297C15.8906 13.6396 15.9398 13.6865 15.9398 13.7445C15.9398 15.5884 14.3297 16.9011 12.1266 16.9011Z" fill="#F8F8F8"/>
</svg>
