<svg width="53" height="53" viewBox="0 0 53 53" fill="none" xmlns="http://www.w3.org/2000/svg">
<path fill-rule="evenodd" clip-rule="evenodd" d="M36.4375 49.6875C39.9516 49.6875 43.3218 48.2915 45.8067 45.8067C48.2915 43.3218 49.6875 39.9516 49.6875 36.4375C49.6875 32.9234 48.2915 29.5532 45.8067 27.0683C43.3218 24.5835 39.9516 23.1875 36.4375 23.1875C32.9234 23.1875 29.5532 24.5835 27.0683 27.0683C24.5835 29.5532 23.1875 32.9234 23.1875 36.4375C23.1875 39.9516 24.5835 43.3218 27.0683 45.8067C29.5532 48.2915 32.9234 49.6875 36.4375 49.6875ZM53 36.4375C53 40.8301 51.255 45.0429 48.149 48.149C45.0429 51.255 40.8301 53 36.4375 53C32.0449 53 27.8321 51.255 24.726 48.149C21.62 45.0429 19.875 40.8301 19.875 36.4375C19.875 32.0449 21.62 27.8321 24.726 24.726C27.8321 21.62 32.0449 19.875 36.4375 19.875C40.8301 19.875 45.0429 21.62 48.149 24.726C51.255 27.8321 53 32.0449 53 36.4375Z" fill="white"/>
<path d="M31.2621 39.5645C31.4178 41.5388 32.978 43.0758 35.777 43.2613V44.7188H37.0192V43.2513C39.9177 43.0493 41.6104 41.499 41.6104 39.2531C41.6104 37.206 40.3185 36.1526 37.9997 35.6094L37.0192 35.3775V31.4025C38.2647 31.5449 39.0531 32.224 39.2419 33.1648H41.4215C41.2659 31.2601 39.6328 29.7728 37.0192 29.6104V28.1562H35.777V29.6469C33.3026 29.8887 31.6198 31.376 31.6198 33.4827C31.6198 35.3444 32.872 36.5302 34.9555 37.0139L35.777 37.2159V41.4294C34.505 41.2373 33.6603 40.5351 33.4715 39.5645H31.2588H31.2621ZM35.7671 35.0794C34.5448 34.7978 33.8823 34.2181 33.8823 33.3502C33.8823 32.3764 34.5978 31.6476 35.777 31.4356V35.0794H35.7671ZM37.1981 37.5505C38.6854 37.895 39.3678 38.4515 39.3678 39.4353C39.3678 40.5582 38.5165 41.3267 37.0192 41.4692V37.5108L37.1981 37.5505Z" fill="white"/>
<path d="M3.3125 0C2.43397 0 1.59142 0.348995 0.970209 0.970209C0.348995 1.59142 0 2.43397 0 3.3125L0 29.8125C0 30.691 0.348995 31.5336 0.970209 32.1548C1.59142 32.776 2.43397 33.125 3.3125 33.125H16.8374C17.0296 31.9855 17.3178 30.8791 17.6921 29.8125H9.9375C9.9375 28.0554 9.23951 26.3703 7.99708 25.1279C6.75465 23.8855 5.06956 23.1875 3.3125 23.1875V9.9375C5.06956 9.9375 6.75465 9.23951 7.99708 7.99708C9.23951 6.75465 9.9375 5.06956 9.9375 3.3125H43.0625C43.0625 5.06956 43.7605 6.75465 45.0029 7.99708C46.2453 9.23951 47.9304 9.9375 49.6875 9.9375V21.624C50.9463 22.7502 52.0626 24.0355 53 25.4466V3.3125C53 2.43397 52.651 1.59142 52.0298 0.970209C51.4086 0.348995 50.566 0 49.6875 0L3.3125 0Z" fill="white"/>
<path d="M33.1184 16.8374L33.125 16.5625C33.1243 15.4216 32.829 14.3003 32.2678 13.307C31.7065 12.3138 30.8982 11.4823 29.9213 10.8932C28.9443 10.304 27.8318 9.97713 26.6914 9.94417C25.551 9.91121 24.4215 10.1733 23.4121 10.705C22.4028 11.2368 21.5478 12.0202 20.9301 12.9793C20.3124 13.9385 19.9529 15.0409 19.8863 16.1798C19.8197 17.3187 20.0484 18.4555 20.5501 19.4801C21.0519 20.5047 21.8097 21.3824 22.7503 22.0281C25.6114 19.3028 29.2221 17.4952 33.1184 16.8374Z" fill="white"/>
</svg>
