<svg width="30" height="30" viewBox="0 0 30 30" fill="none" xmlns="http://www.w3.org/2000/svg">
<g clip-path="url(#clip0_57_27)">
<path d="M29.8933 21.6112C29.6852 21.0431 29.2877 20.7394 28.8358 20.4881C28.7609 20.4444 28.6839 20.4043 28.6052 20.3681L28.1945 20.16C26.7845 19.4119 25.6839 18.4688 24.9208 17.3512C24.7037 17.037 24.5155 16.7037 24.3583 16.3556C24.2945 16.1681 24.2983 16.0631 24.3433 15.9675C24.3902 15.893 24.4522 15.8292 24.5252 15.78C24.767 15.6188 25.0164 15.4556 25.1852 15.3469C25.4889 15.1519 25.727 14.9963 25.8808 14.8875C26.4602 14.4825 26.8652 14.0513 27.1183 13.5713C27.2947 13.2392 27.3975 12.8731 27.4198 12.4978C27.4422 12.1225 27.3834 11.7468 27.2477 11.3963C26.8633 10.3875 25.9108 9.76125 24.7558 9.76125C24.4473 9.76062 24.1402 9.80162 23.8427 9.88313C23.8539 9.19312 23.8389 8.46375 23.777 7.7475C23.5595 5.2275 22.6764 3.9075 21.7577 2.85375C21.1686 2.1941 20.475 1.63601 19.7045 1.20187C18.3077 0.405 16.7252 0 14.9983 0C13.2733 0 11.6983 0.405 10.3014 1.20187C9.52891 1.63687 8.83516 2.19563 8.24453 2.8575C7.32578 3.91125 6.44453 5.23312 6.22516 7.75125C6.16328 8.4675 6.15016 9.19875 6.15766 9.885C5.86014 9.80351 5.553 9.76252 5.24453 9.76312C4.09141 9.76312 3.13703 10.3912 2.75453 11.4C2.61801 11.7506 2.55857 12.1265 2.58025 12.5021C2.60193 12.8777 2.70421 13.2443 2.88016 13.5769C3.13516 14.0569 3.54016 14.4881 4.11766 14.8913C4.27141 15 4.51141 15.1537 4.81328 15.3525L5.44891 15.7669C5.53047 15.8209 5.60004 15.8911 5.65328 15.9731C5.70203 16.0725 5.70391 16.1794 5.63078 16.38C5.47572 16.7208 5.29061 17.0471 5.07766 17.355C4.33141 18.4481 3.26266 19.3744 1.89766 20.115C1.17578 20.4975 0.423907 20.7525 0.107032 21.615C-0.132968 22.2675 0.0245322 23.0081 0.632032 23.6306C0.855157 23.865 1.11391 24.0619 1.39891 24.2119C1.99108 24.5372 2.62073 24.7891 3.27391 24.9619C3.40875 24.9964 3.5368 25.0535 3.65266 25.1306C3.87391 25.3256 3.84391 25.6181 4.13828 26.0456C4.28641 26.2669 4.47578 26.4581 4.69328 26.6081C5.31203 27.0375 6.00766 27.0637 6.74641 27.0919C7.41203 27.1181 8.16766 27.1481 9.02828 27.4294C9.38453 27.5494 9.75766 27.7781 10.187 28.0444C11.2183 28.6781 12.6339 29.5481 14.9983 29.5481C17.3645 29.5481 18.7858 28.6744 19.8283 28.0369C20.2539 27.7744 20.6233 27.5494 20.9702 27.435C21.8327 27.15 22.5883 27.12 23.2539 27.0956C23.9908 27.0675 24.6864 27.0394 25.307 26.6119C25.5653 26.4311 25.7805 26.1955 25.937 25.9219C26.1508 25.5619 26.1433 25.3088 26.3439 25.1344C26.4527 25.0604 26.5731 25.0052 26.7002 24.9712C27.3626 24.7978 28.0012 24.5434 28.6014 24.2137C28.9014 24.0506 29.1752 23.8388 29.4058 23.5838L29.4133 23.5744C29.9833 22.965 30.1258 22.245 29.8933 21.6112ZM27.7914 22.74C26.5089 23.4488 25.6558 23.3719 24.992 23.7994C24.4295 24.1612 24.7633 24.9431 24.3545 25.2244C23.8502 25.5731 22.3652 25.2019 20.4452 25.8356C18.8608 26.3588 17.8502 27.8644 15.002 27.8644C12.1539 27.8644 11.1677 26.3625 9.55703 25.8319C7.64078 25.1981 6.15203 25.5694 5.64953 25.2225C5.24078 24.9412 5.57266 24.1575 5.01016 23.7956C4.34641 23.3681 3.49328 23.445 2.21266 22.74C1.39516 22.29 1.85828 22.0088 2.13016 21.8775C6.77641 19.6294 7.51703 16.1587 7.54891 15.9C7.59016 15.5887 7.63328 15.3431 7.29016 15.0262C6.95828 14.7188 5.48641 13.8075 5.07766 13.5225C4.40266 13.05 4.10266 12.5794 4.32391 12C4.47766 11.5988 4.85078 11.4469 5.24266 11.4469C5.3669 11.4474 5.49073 11.4613 5.61203 11.4881C6.35453 11.6494 7.07453 12.0225 7.49078 12.1219C7.54141 12.135 7.59203 12.1406 7.64453 12.1425C7.86578 12.1425 7.94453 12.03 7.92953 11.7769C7.88078 10.965 7.76641 9.3825 7.89391 7.90313C8.07016 5.87063 8.72641 4.86188 9.50453 3.97125C9.87953 3.54188 11.6364 1.68375 14.9983 1.68375C18.3583 1.68375 20.1208 3.53437 20.4939 3.96187C21.2739 4.8525 21.9302 5.86125 22.1045 7.89562C22.232 9.37312 22.1214 10.9556 22.0689 11.7675C22.0502 12.0337 22.1327 12.1331 22.3539 12.1331C22.4057 12.133 22.4573 12.1267 22.5077 12.1144C22.9239 12.0131 23.6458 11.64 24.3864 11.4806C24.5076 11.4529 24.6315 11.4384 24.7558 11.4375C25.1495 11.4375 25.5227 11.5912 25.6745 11.9906C25.8939 12.57 25.5995 13.0406 24.9227 13.5131C24.5139 13.7981 23.042 14.7094 22.7102 15.0169C22.3652 15.3337 22.4102 15.5794 22.4495 15.8906C22.4833 16.1531 23.2239 19.6237 27.8683 21.87C28.1439 22.0069 28.607 22.2863 27.7914 22.74Z" fill="white"/>
</g>
<defs>
<clipPath id="clip0_57_27">
<rect width="30" height="30" fill="white"/>
</clipPath>
</defs>
</svg>
