<svg width="115" height="75" viewBox="0 0 115 75" fill="none" xmlns="http://www.w3.org/2000/svg">
<rect width="115" height="75" fill="white"/>
<rect width="115" height="75" fill="#4F4D4D"/>
<path d="M52.9375 44.7499C52.7883 44.7499 52.6452 44.6906 52.5398 44.5852C52.4343 44.4797 52.375 44.3366 52.375 44.1874V31.8124C52.375 31.7147 52.4005 31.6186 52.449 31.5337C52.4974 31.4488 52.5671 31.378 52.6513 31.3283C52.7354 31.2785 52.8311 31.2516 52.9288 31.2501C53.0265 31.2486 53.123 31.2725 53.2086 31.3197L64.4586 37.5072C64.5468 37.5557 64.6204 37.627 64.6716 37.7137C64.7228 37.8004 64.7498 37.8992 64.7498 37.9999C64.7498 38.1006 64.7228 38.1994 64.6716 38.2861C64.6204 38.3728 64.5468 38.4441 64.4586 38.4927L53.2086 44.6802C53.1256 44.7259 53.0323 44.7499 52.9375 44.7499Z" fill="#DFA961"/>
</svg>
