<svg width="115" height="75" viewBox="0 0 115 75" fill="none" xmlns="http://www.w3.org/2000/svg">
<rect width="115" height="75" fill="white"/>
<rect width="115" height="75" fill="#222020"/>
<path d="M60.0625 44.75C60.2117 44.75 60.3548 44.6908 60.4602 44.5853C60.5657 44.4798 60.625 44.3367 60.625 44.1875V31.8125C60.625 31.7148 60.5995 31.6187 60.551 31.5338C60.5026 31.4489 60.4329 31.3781 60.3487 31.3284C60.2646 31.2787 60.1689 31.2517 60.0712 31.2502C59.9735 31.2487 59.877 31.2727 59.7914 31.3198L48.5414 37.5073C48.4532 37.5558 48.3796 37.6272 48.3284 37.7138C48.2772 37.8005 48.2502 37.8993 48.2502 38C48.2502 38.1007 48.2772 38.1995 48.3284 38.2862C48.3796 38.3729 48.4532 38.4442 48.5414 38.4928L59.7914 44.6803C59.8744 44.726 59.9677 44.75 60.0625 44.75Z" fill="#DFA961"/>
</svg>
