<svg width="15" height="15" viewBox="0 0 15 15" fill="none" xmlns="http://www.w3.org/2000/svg">
<path d="M13.7169 5.73688C13.6776 5.62118 13.6053 5.5195 13.5089 5.44442C13.4125 5.36934 13.2962 5.32413 13.1744 5.31438L9.61127 5.03126L8.06939 1.61813C8.02029 1.5082 7.94042 1.41484 7.83942 1.3493C7.73842 1.28376 7.62062 1.24885 7.50022 1.24878C7.37982 1.24871 7.26198 1.28349 7.16091 1.34892C7.05984 1.41435 6.97987 1.50763 6.93064 1.61751L5.38877 5.03126L1.82564 5.31438C1.70593 5.32387 1.59148 5.36764 1.49599 5.44047C1.4005 5.51329 1.32801 5.61208 1.2872 5.72503C1.24639 5.83797 1.23898 5.96028 1.26586 6.07732C1.29274 6.19437 1.35277 6.30119 1.43877 6.38501L4.07189 8.95188L3.14064 12.9844C3.11236 13.1064 3.12143 13.2342 3.16665 13.351C3.21188 13.4679 3.29118 13.5684 3.39427 13.6397C3.49735 13.7109 3.61947 13.7495 3.74476 13.7504C3.87005 13.7514 3.99273 13.7146 4.09689 13.645L7.50002 11.3763L10.9031 13.645C11.0096 13.7157 11.1352 13.7521 11.2629 13.7493C11.3907 13.7465 11.5145 13.7046 11.6178 13.6293C11.721 13.5541 11.7987 13.449 11.8405 13.3282C11.8822 13.2074 11.886 13.0767 11.8513 12.9538L10.7081 8.95376L13.5431 6.40251C13.7288 6.23501 13.7969 5.97376 13.7169 5.73688Z" fill="#F9D245"/>
</svg>
