<svg width="18" height="18" viewBox="0 0 18 18" fill="none" xmlns="http://www.w3.org/2000/svg">
<path d="M3.9375 15.7499C3.78832 15.7499 3.64524 15.6906 3.53975 15.5851C3.43426 15.4797 3.375 15.3366 3.375 15.1874V2.8124C3.37502 2.71466 3.4005 2.6186 3.44895 2.53371C3.4974 2.44881 3.56713 2.37801 3.65127 2.32827C3.73542 2.27853 3.83107 2.25158 3.92881 2.25007C4.02654 2.24856 4.12298 2.27254 4.20862 2.31965L15.4586 8.50715C15.5468 8.55571 15.6204 8.62705 15.6716 8.71372C15.7228 8.8004 15.7498 8.89923 15.7498 8.9999C15.7498 9.10058 15.7228 9.19941 15.6716 9.28609C15.6204 9.37276 15.5468 9.4441 15.4586 9.49265L4.20862 15.6802C4.12557 15.7259 4.03231 15.7499 3.9375 15.7499Z" fill="#DFA961"/>
</svg>
