<svg width="85" height="85" viewBox="0 0 85 85" fill="none" xmlns="http://www.w3.org/2000/svg">
<path d="M73.1951 49.5834H30.6951C30.0689 49.5834 29.4683 49.8321 29.0255 50.2749C28.5827 50.7177 28.334 51.3183 28.334 51.9445C28.334 52.5707 28.5827 53.1713 29.0255 53.614C29.4683 54.0568 30.0689 54.3056 30.6951 54.3056H73.1951C73.8213 54.3056 74.4219 54.0568 74.8647 53.614C75.3075 53.1713 75.5562 52.5707 75.5562 51.9445C75.5562 51.3183 75.3075 50.7177 74.8647 50.2749C74.4219 49.8321 73.8213 49.5834 73.1951 49.5834Z" fill="white"/>
<path d="M28.334 37.7777C28.334 38.4039 28.5827 39.0045 29.0255 39.4473C29.4683 39.8901 30.0689 40.1389 30.6951 40.1389H73.1951C73.8213 40.1389 74.4219 39.8901 74.8647 39.4473C75.3075 39.0045 75.5562 38.4039 75.5562 37.7777C75.5562 37.1515 75.3075 36.551 74.8647 36.1082C74.4219 35.6654 73.8213 35.4166 73.1951 35.4166H30.6951C30.0689 35.4166 29.4683 35.6654 29.0255 36.1082C28.5827 36.551 28.334 37.1515 28.334 37.7777Z" fill="white"/>
<path d="M63.7507 63.75H30.6951C30.0689 63.75 29.4683 63.9988 29.0255 64.4416C28.5827 64.8843 28.334 65.4849 28.334 66.1111C28.334 66.7373 28.5827 67.3379 29.0255 67.7807C29.4683 68.2235 30.0689 68.4722 30.6951 68.4722H63.7507C64.3769 68.4722 64.9774 68.2235 65.4202 67.7807C65.863 67.3379 66.1118 66.7373 66.1118 66.1111C66.1118 65.4849 65.863 64.8843 65.4202 64.4416C64.9774 63.9988 64.3769 63.75 63.7507 63.75Z" fill="white"/>
<path d="M37.5184 21.25C37.5184 20.6238 37.2697 20.0232 36.8269 19.5804C36.3841 19.1376 35.7835 18.8889 35.1573 18.8889H23.6115V7.57913C23.6115 6.95292 23.3627 6.35237 22.9199 5.90957C22.4772 5.46678 21.8766 5.21802 21.2504 5.21802C20.6242 5.21802 20.0236 5.46678 19.5808 5.90957C19.138 6.35237 18.8893 6.95292 18.8893 7.57913V18.8889H6.824C6.1978 18.8889 5.59724 19.1376 5.15444 19.5804C4.71165 20.0232 4.46289 20.6238 4.46289 21.25C4.46289 21.8762 4.71165 22.4767 5.15444 22.9195C5.59724 23.3623 6.1978 23.6111 6.824 23.6111H18.8893V35.9125C18.8893 36.5387 19.138 37.1392 19.5808 37.582C20.0236 38.0248 20.6242 38.2736 21.2504 38.2736C21.8766 38.2736 22.4772 38.0248 22.9199 37.582C23.3627 37.1392 23.6115 36.5387 23.6115 35.9125V23.6111H35.1573C35.7835 23.6111 36.3841 23.3623 36.8269 22.9195C37.2697 22.4767 37.5184 21.8762 37.5184 21.25Z" fill="white"/>
</svg>
