<svg width="85" height="85" viewBox="0 0 85 85" fill="none" xmlns="http://www.w3.org/2000/svg">
<path d="M25.5 42.5C25.5 41.9364 25.7239 41.3959 26.1224 40.9974C26.5209 40.5989 27.0614 40.375 27.625 40.375H40.375V27.625C40.375 27.0614 40.5989 26.5209 40.9974 26.1224C41.3959 25.7239 41.9364 25.5 42.5 25.5C43.0636 25.5 43.6041 25.7239 44.0026 26.1224C44.4011 26.5209 44.625 27.0614 44.625 27.625V40.375H57.375C57.9386 40.375 58.4791 40.5989 58.8776 40.9974C59.2761 41.3959 59.5 41.9364 59.5 42.5C59.5 43.0636 59.2761 43.6041 58.8776 44.0026C58.4791 44.4011 57.9386 44.625 57.375 44.625H44.625V57.375C44.625 57.9386 44.4011 58.4791 44.0026 58.8776C43.6041 59.2761 43.0636 59.5 42.5 59.5C41.9364 59.5 41.3959 59.2761 40.9974 58.8776C40.5989 58.4791 40.375 57.9386 40.375 57.375V44.625H27.625C27.0614 44.625 26.5209 44.4011 26.1224 44.0026C25.7239 43.6041 25.5 43.0636 25.5 42.5Z" fill="white"/>
<path d="M42.5 76.5C51.5174 76.5 60.1654 72.9179 66.5416 66.5416C72.9179 60.1654 76.5 51.5174 76.5 42.5C76.5 33.4826 72.9179 24.8346 66.5416 18.4584C60.1654 12.0821 51.5174 8.5 42.5 8.5C33.4826 8.5 24.8346 12.0821 18.4584 18.4584C12.0821 24.8346 8.5 33.4826 8.5 42.5C8.5 51.5174 12.0821 60.1654 18.4584 66.5416C24.8346 72.9179 33.4826 76.5 42.5 76.5V76.5ZM42.5 72.25C38.5932 72.25 34.7246 71.4805 31.1152 69.9854C27.5057 68.4903 24.2261 66.299 21.4636 63.5364C18.701 60.7739 16.5097 57.4943 15.0146 53.8848C13.5195 50.2754 12.75 46.4068 12.75 42.5C12.75 38.5932 13.5195 34.7246 15.0146 31.1152C16.5097 27.5057 18.701 24.2261 21.4636 21.4636C24.2261 18.701 27.5057 16.5097 31.1152 15.0146C34.7246 13.5195 38.5932 12.75 42.5 12.75C50.3902 12.75 57.9572 15.8844 63.5364 21.4636C69.1156 27.0428 72.25 34.6098 72.25 42.5C72.25 50.3902 69.1156 57.9572 63.5364 63.5364C57.9572 69.1156 50.3902 72.25 42.5 72.25Z" fill="white"/>
</svg>
