<svg width="32" height="32" viewBox="0 0 32 32" fill="none" xmlns="http://www.w3.org/2000/svg">
<path d="M10.6665 14.6666C10.3129 14.6666 9.97374 14.8071 9.7237 15.0572C9.47365 15.3072 9.33317 15.6463 9.33317 16C9.33317 16.3536 9.47365 16.6927 9.7237 16.9428C9.97374 17.1928 10.3129 17.3333 10.6665 17.3333H21.3332C21.6868 17.3333 22.0259 17.1928 22.276 16.9428C22.526 16.6927 22.6665 16.3536 22.6665 16C22.6665 15.6463 22.526 15.3072 22.276 15.0572C22.0259 14.8071 21.6868 14.6666 21.3332 14.6666H10.6665ZM15.9998 2.66663C12.4636 2.66663 9.07223 4.07138 6.57175 6.57187C4.07126 9.07235 2.6665 12.4637 2.6665 16C2.6665 19.5362 4.07126 22.9276 6.57175 25.4281C9.07223 27.9285 12.4636 29.3333 15.9998 29.3333C19.5361 29.3333 22.9274 27.9285 25.4279 25.4281C27.9284 22.9276 29.3332 19.5362 29.3332 16C29.3332 12.4637 27.9284 9.07235 25.4279 6.57187C22.9274 4.07138 19.5361 2.66663 15.9998 2.66663V2.66663ZM5.33317 16C5.33317 13.171 6.45698 10.4579 8.45737 8.45749C10.4578 6.4571 13.1709 5.33329 15.9998 5.33329C18.8288 5.33329 21.5419 6.4571 23.5423 8.45749C25.5427 10.4579 26.6665 13.171 26.6665 16C26.6665 18.8289 25.5427 21.542 23.5423 23.5424C21.5419 25.5428 18.8288 26.6666 15.9998 26.6666C13.1709 26.6666 10.4578 25.5428 8.45737 23.5424C6.45698 21.542 5.33317 18.8289 5.33317 16V16Z" fill="black"/>
</svg>
