<svg width="163" height="184" viewBox="0 0 163 184" fill="none" xmlns="http://www.w3.org/2000/svg">
<path d="M104.262 116.343L82.7055 140.668V32.2C82.7055 30.98 82.2761 29.81 81.5119 28.9473C80.7477 28.0846 79.7112 27.6 78.6305 27.6C77.5497 27.6 76.5132 28.0846 75.749 28.9473C74.9848 29.81 74.5555 30.98 74.5555 32.2V140.714L52.9743 116.334C52.2091 115.47 51.1713 114.985 50.0892 114.985C49.0071 114.985 47.9693 115.47 47.2041 116.334C46.4389 117.198 46.009 118.369 46.009 119.591C46.009 120.812 46.4389 121.984 47.2041 122.848L75.6476 154.956L75.7291 155.048C76.497 155.913 77.5374 156.399 78.6223 156.4H78.6305C79.2271 156.401 79.8167 156.254 80.3574 155.969C80.8982 155.685 81.377 155.27 81.7601 154.753L110.024 122.848C110.413 122.423 110.724 121.916 110.937 121.354C111.151 120.793 111.263 120.19 111.268 119.579C111.273 118.968 111.17 118.362 110.965 117.797C110.76 117.232 110.457 116.718 110.075 116.286C109.692 115.854 109.237 115.513 108.736 115.281C108.236 115.05 107.699 114.934 107.158 114.939C106.617 114.944 106.082 115.071 105.585 115.312C105.088 115.553 104.638 115.904 104.262 116.343Z" fill="#DFA961"/>
</svg>
