<svg width="53" height="53" viewBox="0 0 53 53" fill="none" xmlns="http://www.w3.org/2000/svg">
<g clip-path="url(#clip0_207_57)">
<path d="M15.5126 8.88806C15.7614 8.63927 15.9012 8.30182 15.9012 7.94996C15.9012 7.59811 15.7614 7.26066 15.5126 7.01186C15.2638 6.76306 14.9264 6.62329 14.5745 6.62329C14.2227 6.62329 13.8852 6.76306 13.6364 7.01186L9.27452 11.3764L7.56263 9.66186C7.43943 9.53867 7.29318 9.44095 7.13222 9.37428C6.97126 9.30761 6.79875 9.27329 6.62453 9.27329C6.4503 9.27329 6.27779 9.30761 6.11683 9.37428C5.95587 9.44095 5.80962 9.53867 5.68642 9.66186C5.56323 9.78506 5.46551 9.93131 5.39884 10.0923C5.33217 10.2532 5.29785 10.4257 5.29785 10.6C5.29785 10.7742 5.33217 10.9467 5.39884 11.1077C5.46551 11.2686 5.56323 11.4149 5.68642 11.5381L8.33642 14.1881C8.45951 14.3115 8.60572 14.4094 8.7667 14.4762C8.92767 14.543 9.10024 14.5773 9.27452 14.5773C9.44881 14.5773 9.62138 14.543 9.78235 14.4762C9.94333 14.4094 10.0895 14.3115 10.2126 14.1881L15.5126 8.88806ZM23.187 9.27496C22.6599 9.27496 22.1544 9.48436 21.7817 9.85709C21.4089 10.2298 21.1995 10.7353 21.1995 11.2625C21.1995 11.7896 21.4089 12.2951 21.7817 12.6678C22.1544 13.0406 22.6599 13.25 23.187 13.25H45.712C46.2391 13.25 46.7447 13.0406 47.1174 12.6678C47.4901 12.2951 47.6995 11.7896 47.6995 11.2625C47.6995 10.7353 47.4901 10.2298 47.1174 9.85709C46.7447 9.48436 46.2391 9.27496 45.712 9.27496H23.187ZM23.187 22.525C22.6599 22.525 22.1544 22.7344 21.7817 23.1071C21.4089 23.4798 21.1995 23.9853 21.1995 24.5125C21.1995 25.0396 21.4089 25.5451 21.7817 25.9178C22.1544 26.2906 22.6599 26.5 23.187 26.5H45.712C46.2391 26.5 46.7447 26.2906 47.1174 25.9178C47.4901 25.5451 47.6995 25.0396 47.6995 24.5125C47.6995 23.9853 47.4901 23.4798 47.1174 23.1071C46.7447 22.7344 46.2391 22.525 45.712 22.525H23.187ZM26.5578 39.75C26.6805 38.3875 26.9954 37.0492 27.4933 35.775H23.187C22.6599 35.775 22.1544 35.9844 21.7817 36.3571C21.4089 36.7298 21.1995 37.2353 21.1995 37.7625C21.1995 38.2896 21.4089 38.7951 21.7817 39.1678C22.1544 39.5406 22.6599 39.75 23.187 39.75H26.5578ZM15.5126 23.4631C15.6358 23.3399 15.7335 23.1936 15.8002 23.0327C15.8669 22.8717 15.9012 22.6992 15.9012 22.525C15.9012 22.3507 15.8669 22.1782 15.8002 22.0173C15.7335 21.8563 15.6358 21.7101 15.5126 21.5869C15.3894 21.4637 15.2432 21.3659 15.0822 21.2993C14.9213 21.2326 14.7487 21.1983 14.5745 21.1983C14.4003 21.1983 14.2278 21.2326 14.0668 21.2993C13.9059 21.3659 13.7596 21.4637 13.6364 21.5869L9.27452 25.9514L7.56263 24.2369C7.31383 23.9881 6.97638 23.8483 6.62453 23.8483C6.27267 23.8483 5.93522 23.9881 5.68642 24.2369C5.43763 24.4857 5.29785 24.8231 5.29785 25.175C5.29785 25.5268 5.43763 25.8643 5.68642 26.1131L8.33642 28.7631C8.45951 28.8865 8.60572 28.9844 8.7667 29.0512C8.92767 29.1179 9.10024 29.1523 9.27452 29.1523C9.44881 29.1523 9.62138 29.1179 9.78235 29.0512C9.94333 28.9844 10.0895 28.8865 10.2126 28.7631L15.5126 23.4631ZM15.5126 34.8369C15.636 34.9599 15.7339 35.1062 15.8007 35.2671C15.8675 35.4281 15.9019 35.6007 15.9019 35.775C15.9019 35.9492 15.8675 36.1218 15.8007 36.2828C15.7339 36.4438 15.636 36.59 15.5126 36.7131L10.2126 42.0131C10.0895 42.1365 9.94333 42.2344 9.78235 42.3012C9.62138 42.3679 9.44881 42.4023 9.27452 42.4023C9.10024 42.4023 8.92767 42.3679 8.7667 42.3012C8.60572 42.2344 8.45951 42.1365 8.33642 42.0131L5.68642 39.3631C5.43763 39.1143 5.29785 38.7768 5.29785 38.425C5.29785 38.0731 5.43763 37.7357 5.68642 37.4869C5.93522 37.2381 6.27267 37.0983 6.62453 37.0983C6.97638 37.0983 7.31383 37.2381 7.56263 37.4869L9.27452 39.2014L13.6364 34.8369C13.7595 34.7135 13.9057 34.6156 14.0667 34.5488C14.2277 34.482 14.4002 34.4476 14.5745 34.4476C14.7488 34.4476 14.9214 34.482 15.0824 34.5488C15.2433 34.6156 15.3895 34.7135 15.5126 34.8369ZM52.9995 41.075C52.9995 44.2377 51.7431 47.2708 49.5068 49.5072C47.2704 51.7436 44.2372 53 41.0745 53C37.9118 53 34.8786 51.7436 32.6423 49.5072C30.4059 47.2708 29.1495 44.2377 29.1495 41.075C29.1495 37.9123 30.4059 34.8791 32.6423 32.6427C34.8786 30.4063 37.9118 29.15 41.0745 29.15C44.2372 29.15 47.2704 30.4063 49.5068 32.6427C51.7431 34.8791 52.9995 37.9123 52.9995 41.075ZM42.3995 35.775C42.3995 35.4236 42.2599 35.0865 42.0114 34.838C41.763 34.5896 41.4259 34.45 41.0745 34.45C40.7231 34.45 40.3861 34.5896 40.1376 34.838C39.8891 35.0865 39.7495 35.4236 39.7495 35.775V39.75H35.7745C35.4231 39.75 35.0861 39.8896 34.8376 40.138C34.5891 40.3865 34.4495 40.7235 34.4495 41.075C34.4495 41.4264 34.5891 41.7634 34.8376 42.0119C35.0861 42.2604 35.4231 42.4 35.7745 42.4H39.7495V46.375C39.7495 46.7264 39.8891 47.0634 40.1376 47.3119C40.3861 47.5604 40.7231 47.7 41.0745 47.7C41.4259 47.7 41.763 47.5604 42.0114 47.3119C42.2599 47.0634 42.3995 46.7264 42.3995 46.375V42.4H46.3745C46.7259 42.4 47.063 42.2604 47.3114 42.0119C47.5599 41.7634 47.6995 41.4264 47.6995 41.075C47.6995 40.7235 47.5599 40.3865 47.3114 40.138C47.063 39.8896 46.7259 39.75 46.3745 39.75H42.3995V35.775Z" fill="white"/>
</g>
<defs>
<clipPath id="clip0_207_57">
<rect width="53" height="53" fill="white"/>
</clipPath>
</defs>
</svg>
