<svg width="53" height="53" viewBox="0 0 53 53" fill="none" xmlns="http://www.w3.org/2000/svg">
<path d="M37.542 44.1666H48.5837V39.7499C48.5836 38.3731 48.1545 37.0305 47.3561 35.9088C46.5578 34.7871 45.4298 33.942 44.1289 33.491C42.8281 33.0399 41.419 33.0054 40.0976 33.3922C38.7762 33.7789 37.6082 34.5678 36.7558 35.649L37.542 44.1666ZM37.542 44.1666H15.4587H37.542ZM37.542 44.1666V39.7499C37.542 38.3012 37.2637 36.9166 36.7558 35.649L37.542 44.1666ZM15.4587 44.1666H4.41699V39.7499C4.41709 38.3731 4.84615 37.0305 5.64452 35.9088C6.44289 34.7871 7.5709 33.942 8.87175 33.491C10.1726 33.0399 11.5817 33.0054 12.903 33.3922C14.2244 33.7789 15.3925 34.5678 16.2448 35.649L15.4587 44.1666ZM15.4587 44.1666V39.7499C15.4587 38.3012 15.7369 36.9166 16.2448 35.649L15.4587 44.1666ZM16.2448 35.649C17.0649 33.5996 18.4802 31.8429 20.3082 30.6055C22.1361 29.3681 24.2929 28.7067 26.5003 28.7067C28.7077 28.7067 30.8645 29.3681 32.6925 30.6055C34.5205 31.8429 35.9357 33.5996 36.7558 35.649H16.2448ZM33.1253 15.4583C33.1253 17.2153 32.4273 18.9004 31.1849 20.1428C29.9425 21.3853 28.2574 22.0833 26.5003 22.0833C24.7433 22.0833 23.0582 21.3853 21.8157 20.1428C20.5733 18.9004 19.8753 17.2153 19.8753 15.4583C19.8753 13.7012 20.5733 12.0161 21.8157 10.7737C23.0582 9.53124 24.7433 8.83325 26.5003 8.83325C28.2574 8.83325 29.9425 9.53124 31.1849 10.7737C32.4273 12.0161 33.1253 13.7012 33.1253 15.4583V15.4583ZM46.3753 22.0833C46.3753 23.2546 45.91 24.378 45.0817 25.2063C44.2534 26.0346 43.13 26.4999 41.9587 26.4999C40.7873 26.4999 39.6639 26.0346 38.8356 25.2063C38.0073 24.378 37.542 23.2546 37.542 22.0833C37.542 20.9119 38.0073 19.7885 38.8356 18.9602C39.6639 18.1319 40.7873 17.6666 41.9587 17.6666C43.13 17.6666 44.2534 18.1319 45.0817 18.9602C45.91 19.7885 46.3753 20.9119 46.3753 22.0833ZM15.4587 22.0833C15.4587 23.2546 14.9933 24.378 14.165 25.2063C13.3368 26.0346 12.2134 26.4999 11.042 26.4999C9.87062 26.4999 8.74722 26.0346 7.91894 25.2063C7.09065 24.378 6.62533 23.2546 6.62533 22.0833C6.62533 20.9119 7.09065 19.7885 7.91894 18.9602C8.74722 18.1319 9.87062 17.6666 11.042 17.6666C12.2134 17.6666 13.3368 18.1319 14.165 18.9602C14.9933 19.7885 15.4587 20.9119 15.4587 22.0833Z" stroke="white" stroke-width="2" stroke-linecap="round" stroke-linejoin="round"/>
</svg>
