<svg width="53" height="53" viewBox="0 0 53 53" fill="none" xmlns="http://www.w3.org/2000/svg">
<path d="M36.4378 13.25H16.5628L11.042 19.7016V42.0599L16.5628 48.5833H36.4378L41.9587 42.0599V19.7005L36.4378 13.25Z" stroke="white" stroke-width="4" stroke-linecap="round" stroke-linejoin="round"/>
<path d="M20.9795 22.0835H32.0212" stroke="white" stroke-width="4" stroke-linecap="round" stroke-linejoin="round"/>
<path d="M36.4375 13.2501V7.72925C36.4375 6.85072 36.0885 6.00817 35.4673 5.38696C34.8461 4.76574 34.0035 4.41675 33.125 4.41675H19.875C18.9965 4.41675 18.1539 4.76574 17.5327 5.38696C16.9115 6.00817 16.5625 6.85072 16.5625 7.72925V13.2501" stroke="white" stroke-width="4" stroke-linecap="round" stroke-linejoin="round"/>
<path d="M26.5003 40.8542C29.5494 40.8542 32.0212 38.3824 32.0212 35.3333C32.0212 32.2843 29.5494 29.8125 26.5003 29.8125C23.4513 29.8125 20.9795 32.2843 20.9795 35.3333C20.9795 38.3824 23.4513 40.8542 26.5003 40.8542Z" stroke="white" stroke-width="4" stroke-linecap="round" stroke-linejoin="round"/>
</svg>
