<svg width="32" height="32" viewBox="0 0 32 32" fill="none" xmlns="http://www.w3.org/2000/svg">
<path d="M16.0004 22.6664C17.7685 22.6664 19.4642 21.964 20.7145 20.7138C21.9647 19.4635 22.6671 17.7678 22.6671 15.9997C22.6671 14.2316 21.9647 12.5359 20.7145 11.2856C19.4642 10.0354 17.7685 9.33301 16.0004 9.33301C14.2323 9.33301 12.5366 10.0354 11.2864 11.2856C10.0361 12.5359 9.33374 14.2316 9.33374 15.9997C9.33374 17.7678 10.0361 19.4635 11.2864 20.7138C12.5366 21.964 14.2323 22.6664 16.0004 22.6664V22.6664Z" stroke="white" stroke-width="1.5" stroke-linecap="round" stroke-linejoin="round"/>
<path d="M1 22.6667V9.33333C1 7.1232 1.87797 5.00358 3.44078 3.44078C5.00358 1.87797 7.1232 1 9.33333 1H22.6667C24.8768 1 26.9964 1.87797 28.5592 3.44078C30.122 5.00358 31 7.1232 31 9.33333V22.6667C31 24.8768 30.122 26.9964 28.5592 28.5592C26.9964 30.122 24.8768 31 22.6667 31H9.33333C7.1232 31 5.00358 30.122 3.44078 28.5592C1.87797 26.9964 1 24.8768 1 22.6667Z" stroke="white" stroke-width="1.5"/>
<path d="M25.1675 6.85095L25.1811 6.83203" stroke="white" stroke-width="1.5" stroke-linecap="round" stroke-linejoin="round"/>
</svg>
