<svg width="24" height="22" viewBox="0 0 24 22" fill="none" xmlns="http://www.w3.org/2000/svg">
<path d="M8.25 18.1257C8.66421 18.1257 9 17.8251 9 17.4543C9 17.0836 8.66421 16.783 8.25 16.783C7.83579 16.783 7.5 17.0836 7.5 17.4543C7.5 17.8251 7.83579 18.1257 8.25 18.1257Z" stroke="white" stroke-width="1.5" stroke-linecap="round" stroke-linejoin="round"/>
<path d="M18.75 18.1257C19.1642 18.1257 19.5 17.8251 19.5 17.4543C19.5 17.0836 19.1642 16.783 18.75 16.783C18.3358 16.783 18 17.0836 18 17.4543C18 17.8251 18.3358 18.1257 18.75 18.1257Z" stroke="white" stroke-width="1.5" stroke-linecap="round" stroke-linejoin="round"/>
<path d="M2.25 3.3566H5.25L7.5 14.7691H19.5" stroke="white" stroke-width="1.5" stroke-linecap="round" stroke-linejoin="round"/>
<path d="M7.5 12.0838H19.1925C19.2792 12.0838 19.3633 12.057 19.4304 12.0078C19.4975 11.9586 19.5434 11.8901 19.5605 11.814L20.9105 5.77211C20.9214 5.72339 20.92 5.67311 20.9066 5.62491C20.8931 5.5767 20.8679 5.53177 20.8327 5.49336C20.7975 5.45494 20.7532 5.424 20.703 5.40277C20.6528 5.38154 20.598 5.37054 20.5425 5.37058H6" stroke="white" stroke-width="1.5" stroke-linecap="round" stroke-linejoin="round"/>
</svg>
