<svg width="60" height="60" viewBox="0 0 60 60" fill="none" xmlns="http://www.w3.org/2000/svg">
<path d="M53.1298 20.6249C53.1309 20.1938 53.0466 19.7667 52.8816 19.3684C52.7166 18.9702 52.4743 18.6085 52.1686 18.3045L41.6951 7.83127C41.0792 7.21702 40.2448 6.87207 39.375 6.87207C38.5052 6.87207 37.6708 7.21702 37.0549 7.83127L8.92969 35.9563C8.60875 36.2772 8.35812 36.6615 8.19375 37.0845L8.18672 37.1047C8.04301 37.4787 7.96913 37.8759 7.96875 38.2766V48.7499C7.96974 49.6198 8.31576 50.4538 8.9309 51.069C9.54604 51.6841 10.3801 52.0301 11.25 52.0311H50.625C50.998 52.0311 51.3556 51.8829 51.6194 51.6192C51.8831 51.3555 52.0313 50.9978 52.0313 50.6249C52.0313 50.2519 51.8831 49.8942 51.6194 49.6305C51.3556 49.3668 50.998 49.2186 50.625 49.2186H25.8949L52.1684 22.9452C52.4741 22.6412 52.7165 22.2796 52.8815 21.8813C53.0465 21.483 53.1309 21.056 53.1298 20.6249ZM11.3637 37.4999L31.875 16.9885L43.0113 28.1249L22.5 48.6362L11.3637 37.4999ZM10.7813 48.7499V40.8948L19.1051 49.2186H11.25C11.1257 49.2184 11.0066 49.169 10.9187 49.0811C10.8309 48.9932 10.7814 48.8741 10.7813 48.7499V48.7499ZM50.1797 20.9563L45 26.1362L33.8637 14.9999L39.0434 9.82017C39.1314 9.73244 39.2507 9.68318 39.375 9.68318C39.4993 9.68318 39.6186 9.73244 39.7066 9.82017L50.1799 20.2935C50.2235 20.337 50.258 20.3886 50.2816 20.4455C50.3051 20.5024 50.3173 20.5633 50.3173 20.6249C50.3173 20.6864 50.3051 20.7474 50.2816 20.8042C50.258 20.8611 50.2235 20.9128 50.1799 20.9563H50.1797Z" fill="black"/>
</svg>
