<svg width="53" height="53" viewBox="0 0 53 53" fill="none" xmlns="http://www.w3.org/2000/svg">
<path fill-rule="evenodd" clip-rule="evenodd" d="M9.8932 3.5332H9.71654C8.9074 3.5332 8.21134 3.5332 7.59654 3.67807C6.64478 3.90549 5.77457 4.39197 5.08232 5.08359C4.39008 5.77522 3.90282 6.64499 3.67454 7.59654C3.5332 8.21134 3.5332 8.90387 3.5332 9.71654V18.5499C3.5332 19.359 3.5332 20.0551 3.67807 20.6699C3.90549 21.6216 4.39197 22.4918 5.08359 23.1841C5.77522 23.8763 6.64499 24.3636 7.59654 24.5919C8.21134 24.7332 8.90387 24.7332 9.71654 24.7332H18.5499C19.359 24.7332 20.0551 24.7332 20.6699 24.5883C21.6216 24.3609 22.4918 23.8744 23.1841 23.1828C23.8763 22.4912 24.3636 21.6214 24.5919 20.6699C24.7332 20.0551 24.7332 19.3625 24.7332 18.5499V9.71654C24.7332 8.9074 24.7332 8.21134 24.5883 7.59654C24.3609 6.64478 23.8744 5.77457 23.1828 5.08232C22.4912 4.39008 21.6214 3.90282 20.6699 3.67454C20.0551 3.5332 19.3625 3.5332 18.5499 3.5332H9.8932ZM8.4198 7.116C8.57174 7.08067 8.80847 7.06654 9.8932 7.06654H18.3732C19.4615 7.06654 19.6947 7.07714 19.8466 7.116C20.164 7.1919 20.4542 7.35424 20.6849 7.585C20.9157 7.81576 21.078 8.10594 21.1539 8.42334C21.1893 8.57174 21.1999 8.80494 21.1999 9.8932V18.3732C21.1999 19.4615 21.1893 19.6947 21.1504 19.8466C21.0745 20.164 20.9122 20.4542 20.6814 20.6849C20.4506 20.9157 20.1605 21.078 19.8431 21.1539C19.6982 21.1857 19.465 21.1999 18.3732 21.1999H9.8932C8.80494 21.1999 8.57174 21.1893 8.4198 21.1504C8.1024 21.0745 7.81223 20.9122 7.58147 20.6814C7.35071 20.4506 7.18837 20.1605 7.11247 19.8431C7.08067 19.6982 7.06654 19.465 7.06654 18.3732V9.8932C7.06654 8.80494 7.07714 8.57174 7.116 8.4198C7.1919 8.1024 7.35424 7.81223 7.585 7.58147C7.81577 7.3507 8.10594 7.18837 8.42334 7.11247L8.4198 7.116ZM34.6265 3.5332H34.4499C33.6407 3.5332 32.9447 3.5332 32.3299 3.67807C31.3781 3.90549 30.5079 4.39197 29.8157 5.08359C29.1234 5.77522 28.6362 6.64499 28.4079 7.59654C28.2665 8.21134 28.2665 8.90387 28.2665 9.71654V18.5499C28.2665 19.359 28.2665 20.0551 28.4114 20.6699C28.6388 21.6216 29.1253 22.4918 29.8169 23.1841C30.5086 23.8763 31.3783 24.3636 32.3299 24.5919C32.9447 24.7332 33.6372 24.7332 34.4499 24.7332H43.2832C44.0923 24.7332 44.7884 24.7332 45.4032 24.5883C46.355 24.3609 47.2252 23.8744 47.9174 23.1828C48.6097 22.4912 49.0969 21.6214 49.3252 20.6699C49.4665 20.0551 49.4665 19.3625 49.4665 18.5499V9.71654C49.4665 8.9074 49.4665 8.21134 49.3217 7.59654C49.0943 6.64478 48.6078 5.77457 47.9162 5.08232C47.2245 4.39008 46.3548 3.90282 45.4032 3.67454C44.7884 3.5332 44.0959 3.5332 43.2832 3.5332H34.6265ZM33.1531 7.116C33.3051 7.08067 33.5418 7.06654 34.6265 7.06654H43.1065C44.1948 7.06654 44.428 7.07714 44.5799 7.116C44.8973 7.1919 45.1875 7.35424 45.4183 7.585C45.649 7.81576 45.8114 8.10594 45.8873 8.42334C45.9226 8.57174 45.9332 8.80494 45.9332 9.8932V18.3732C45.9332 19.4615 45.9191 19.6947 45.8837 19.8466C45.8078 20.164 45.6455 20.4542 45.4147 20.6849C45.184 20.9157 44.8938 21.078 44.5764 21.1539C44.428 21.1893 44.1948 21.1999 43.1065 21.1999H34.6265C33.5383 21.1999 33.3051 21.1893 33.1531 21.1504C32.8357 21.0745 32.5456 20.9122 32.3148 20.6814C32.084 20.4506 31.9217 20.1605 31.8458 19.8431C31.814 19.6982 31.7999 19.465 31.7999 18.3732V9.8932C31.7999 8.80494 31.8105 8.57174 31.8493 8.4198C31.9252 8.1024 32.0876 7.81223 32.3183 7.58147C32.5491 7.3507 32.8393 7.18837 33.1567 7.11247L33.1531 7.116ZM9.71654 28.2665H18.5499C19.359 28.2665 20.0551 28.2665 20.6699 28.4114C21.6216 28.6388 22.4918 29.1253 23.1841 29.8169C23.8763 30.5085 24.3636 31.3783 24.5919 32.3299C24.7332 32.9447 24.7332 33.6372 24.7332 34.4499V43.2832C24.7332 44.0923 24.7332 44.7884 24.5883 45.4032C24.3609 46.3549 23.8744 47.2252 23.1828 47.9174C22.4912 48.6097 21.6214 49.0969 20.6699 49.3252C20.0551 49.4665 19.3625 49.4665 18.5499 49.4665H9.71654C8.9074 49.4665 8.21134 49.4665 7.59654 49.3217C6.64478 49.0942 5.77457 48.6078 5.08232 47.9161C4.39008 47.2245 3.90282 46.3547 3.67454 45.4032C3.5332 44.7884 3.5332 44.0959 3.5332 43.2832V34.4499C3.5332 33.6407 3.5332 32.9447 3.67807 32.3299C3.90549 31.3781 4.39197 30.5079 5.08359 29.8157C5.77522 29.1234 6.64499 28.6361 7.59654 28.4079C8.21134 28.2665 8.90387 28.2665 9.71654 28.2665ZM9.8932 31.7999C8.80494 31.7999 8.57174 31.8105 8.4198 31.8493C8.1024 31.9252 7.81223 32.0876 7.58147 32.3183C7.35071 32.5491 7.18837 32.8393 7.11247 33.1567C7.08067 33.3015 7.06654 33.5347 7.06654 34.6265V43.1065C7.06654 44.1948 7.07714 44.428 7.116 44.5799C7.1919 44.8973 7.35424 45.1875 7.585 45.4183C7.81577 45.649 8.10594 45.8114 8.42334 45.8873C8.57174 45.9226 8.80494 45.9332 9.8932 45.9332H18.3732C19.4615 45.9332 19.6947 45.9191 19.8466 45.8837C20.164 45.8078 20.4542 45.6455 20.6849 45.4147C20.9157 45.184 21.078 44.8938 21.1539 44.5764C21.1893 44.428 21.1999 44.1948 21.1999 43.1065V34.6265C21.1999 33.5383 21.1893 33.3051 21.1504 33.1531C21.0745 32.8357 20.9122 32.5456 20.6814 32.3148C20.4506 32.084 20.1605 31.9217 19.8431 31.8458C19.6982 31.814 19.465 31.7999 18.3732 31.7999H9.8932ZM34.6265 28.2665H34.4499C33.6407 28.2665 32.9447 28.2665 32.3299 28.4114C31.3781 28.6388 30.5079 29.1253 29.8157 29.8169C29.1234 30.5085 28.6362 31.3783 28.4079 32.3299C28.2665 32.9447 28.2665 33.6372 28.2665 34.4499V43.2832C28.2665 44.0923 28.2665 44.7884 28.4114 45.4032C28.6388 46.3549 29.1253 47.2252 29.8169 47.9174C30.5086 48.6097 31.3783 49.0969 32.3299 49.3252C32.9447 49.4701 33.6407 49.4701 34.4499 49.4701H43.2832C44.0923 49.4701 44.7884 49.4701 45.4032 49.3252C46.3543 49.0972 47.2238 48.6105 47.9154 47.9189C48.6069 47.2273 49.0937 46.3578 49.3217 45.4067C49.4665 44.7919 49.4665 44.0959 49.4665 43.2867V34.4499C49.4665 33.6407 49.4665 32.9447 49.3217 32.3299C49.0943 31.3781 48.6078 30.5079 47.9162 29.8157C47.2245 29.1234 46.3548 28.6361 45.4032 28.4079C44.7884 28.2665 44.0959 28.2665 43.2832 28.2665H34.6265ZM33.1531 31.8493C33.3051 31.814 33.5418 31.7999 34.6265 31.7999H43.1065C44.1948 31.7999 44.428 31.8105 44.5799 31.8493C44.8973 31.9252 45.1875 32.0876 45.4183 32.3183C45.649 32.5491 45.8114 32.8393 45.8873 33.1567C45.9226 33.3051 45.9332 33.5383 45.9332 34.6265V43.1065C45.9332 44.1948 45.9191 44.428 45.8837 44.5799C45.8078 44.8973 45.6455 45.1875 45.4147 45.4183C45.184 45.649 44.8938 45.8114 44.5764 45.8873C44.428 45.9226 44.1948 45.9332 43.1065 45.9332H34.6265C33.5383 45.9332 33.3051 45.9191 33.1531 45.8837C32.8357 45.8078 32.5456 45.6455 32.3148 45.4147C32.084 45.184 31.9217 44.8938 31.8458 44.5764C31.814 44.4315 31.7999 44.1983 31.7999 43.1065V34.6265C31.7999 33.5383 31.8105 33.3051 31.8493 33.1531C31.9252 32.8357 32.0876 32.5456 32.3183 32.3148C32.5491 32.084 32.8393 31.9217 33.1567 31.8458L33.1531 31.8493Z" fill="white"/>
</svg>
