<svg width="32" height="32" viewBox="0 0 32 32" fill="none" xmlns="http://www.w3.org/2000/svg">
<path d="M25.3332 18.6668V22.6668H29.3332V25.3334H25.3319L25.3332 29.3334H22.6666L22.6652 25.3334H18.6666V22.6668H22.6666V18.6668H25.3332ZM26.9906 6.34275C28.4346 7.78694 29.2717 9.72874 29.3302 11.7702C29.3887 13.8117 28.6642 15.7982 27.3052 17.3228L25.4119 15.4321C27.1866 13.4001 27.0932 10.2134 25.1026 8.22675C24.1389 7.26514 22.844 6.70835 21.4831 6.67042C20.1222 6.6325 18.7983 7.1163 17.7826 8.02275L16.0026 9.62008L14.2212 8.02408C13.2053 7.11564 11.88 6.63071 10.5177 6.66889C9.15536 6.70708 7.85936 7.26549 6.8959 8.22942C5.94157 9.18369 5.38451 10.4643 5.337 11.813C5.2895 13.1618 5.75508 14.4784 6.6399 15.4974L17.8826 26.7588L15.9999 28.6468L4.69323 17.3241C3.33224 15.7987 2.60684 13.8102 2.66595 11.7667C2.72506 9.7233 3.5642 7.78002 5.01109 6.33586C6.45798 4.89169 8.40284 4.05622 10.4464 4.00097C12.4899 3.94572 14.4771 4.67488 15.9999 6.03875C17.5233 4.67502 19.5112 3.94658 21.5551 4.00312C23.5989 4.05966 25.5435 4.89688 26.9892 6.34275H26.9906Z" fill="white"/>
</svg>
