<svg width="35" height="35" viewBox="0 0 35 35" fill="none" xmlns="http://www.w3.org/2000/svg">
<path d="M26.2353 2.3273C24.7642 2.17124 23.2857 2.0953 21.8064 2.0998C16.902 2.0998 13.8541 5.22355 13.8541 10.2519V13.6658H9.73429C9.54091 13.6658 9.35544 13.7427 9.21869 13.8794C9.08195 14.0162 9.00513 14.2016 9.00513 14.395V20.0096C9.00513 20.203 9.08195 20.3884 9.21869 20.5252C9.35544 20.6619 9.54091 20.7388 9.73429 20.7388H13.8541V31.9971C13.8541 32.1905 13.9309 32.3759 14.0677 32.5127C14.2044 32.6494 14.3899 32.7263 14.5833 32.7263H20.3845C20.5779 32.7263 20.7634 32.6494 20.9001 32.5127C21.0368 32.3759 21.1137 32.1905 21.1137 31.9971V20.7388H25.2203C25.3974 20.7388 25.5684 20.6745 25.7015 20.5578C25.8346 20.4411 25.9207 20.2799 25.9437 20.1044L26.6685 14.4898C26.682 14.3869 26.6733 14.2823 26.6431 14.183C26.613 14.0837 26.5619 13.992 26.4935 13.914C26.425 13.836 26.3406 13.7735 26.2461 13.7307C26.1515 13.6879 26.0489 13.6658 25.9451 13.6658H21.1137V10.809C21.1137 9.39438 21.398 8.80376 23.167 8.80376H26.1405C26.3339 8.80376 26.5194 8.72693 26.6561 8.59019C26.7929 8.45344 26.8697 8.26798 26.8697 8.07459V3.05063C26.8698 2.8736 26.8055 2.70259 26.6888 2.56949C26.572 2.4364 26.4109 2.35031 26.2353 2.3273ZM25.4114 7.34396L23.1655 7.34542C20.0199 7.34542 19.6553 9.32292 19.6553 10.809V14.3965C19.6553 14.5896 19.732 14.7748 19.8684 14.9115C20.0048 15.0483 20.1899 15.1252 20.383 15.1256H25.1168L24.5787 19.2819H20.3845C20.1911 19.2819 20.0057 19.3587 19.8689 19.4954C19.7322 19.6322 19.6553 19.8177 19.6553 20.011V31.2665H15.3124V20.011C15.3124 19.8177 15.2356 19.6322 15.0989 19.4954C14.9621 19.3587 14.7766 19.2819 14.5833 19.2819H10.4649V15.1256H14.5833C14.7766 15.1256 14.9621 15.0488 15.0989 14.9121C15.2356 14.7753 15.3124 14.5898 15.3124 14.3965V10.2519C15.3124 6.06063 17.7405 3.55813 21.8064 3.55813C23.2778 3.55813 24.6064 3.63834 25.4114 3.70834V7.34396Z" fill="white"/>
</svg>
