<svg width="162" height="156" viewBox="0 0 162 156" fill="none" xmlns="http://www.w3.org/2000/svg">
<g clip-path="url(#clip0_38_4)">
<path d="M139.612 14.3444L3.87048 56.0999L7.46589 69.1283L143.208 27.3728L139.612 14.3444Z" fill="#3F3D56"/>
<path d="M20.0884 115.945L0.0811577 43.4457C-0.0671707 42.9082 -0.00717616 42.3305 0.247934 41.8397C0.503044 41.3489 0.932374 40.9852 1.44148 40.8286L133.893 0.0852847C134.402 -0.0707909 134.949 -0.00723542 135.413 0.262008C135.878 0.531251 136.223 0.984181 136.372 1.52138L154.096 65.7503L153.548 65.919L135.823 1.69012C135.717 1.30657 135.47 0.983231 135.138 0.790944C134.807 0.598656 134.416 0.553096 134.052 0.664252L1.60128 41.4076C1.23763 41.5194 0.930964 41.7792 0.748743 42.1298C0.566521 42.4804 0.523668 42.8931 0.629612 43.277L20.6369 115.776L20.0884 115.945Z" fill="#3F3D56"/>
<path d="M124.78 66.0483C124.378 66.0479 123.987 65.91 123.666 65.6554C123.345 65.4009 123.11 65.0432 122.997 64.6361L119.641 52.4762C119.504 51.9771 119.56 51.4409 119.797 50.9854C120.034 50.5298 120.432 50.192 120.904 50.046L132.422 46.5031C132.895 46.3583 133.402 46.4174 133.834 46.6675C134.266 46.9175 134.585 47.3381 134.724 47.8369L138.079 59.9968C138.216 60.4959 138.161 61.032 137.924 61.4876C137.687 61.9432 137.289 62.281 136.816 62.4269L125.299 65.9698C125.13 66.0218 124.956 66.0482 124.78 66.0483Z" fill="#FB7368"/>
<path d="M19.7788 43.6696C19.7443 43.5446 19.7033 43.4218 19.6559 43.3017C19.3339 42.4765 18.7344 41.806 17.9726 41.4192C17.2108 41.0323 16.3405 40.9563 15.5288 41.2058C14.7172 41.4553 14.0215 42.0126 13.5754 42.7708C13.1294 43.5289 12.9644 44.4343 13.1123 45.3131C13.1331 45.4413 13.1607 45.5681 13.1951 45.693C13.4037 46.4447 13.8373 47.1048 14.431 47.5745C15.0247 48.0442 15.7465 48.2982 16.4884 48.2985C16.8123 48.2993 17.1346 48.2505 17.4452 48.1538C18.3172 47.8848 19.0526 47.2616 19.4901 46.421C19.9275 45.5804 20.0314 44.5909 19.7788 43.6696ZM17.2853 47.5748C16.5581 47.7976 15.7768 47.7069 15.1129 47.3225C14.4489 46.938 13.9565 46.2913 13.7435 45.5242C13.7101 45.3992 13.6833 45.2723 13.6635 45.1442C13.5563 44.4202 13.7026 43.6798 14.075 43.0614C14.4474 42.443 15.0204 41.989 15.6869 41.7843C16.3533 41.5796 17.0676 41.6381 17.6961 41.949C18.3246 42.2599 18.8243 42.8019 19.1018 43.4736C19.1535 43.5915 19.1965 43.7135 19.2304 43.8384C19.4412 44.6062 19.3547 45.431 18.99 46.1315C18.6253 46.832 18.0122 47.3511 17.2853 47.5748V47.5748Z" fill="#FB7368"/>
<path d="M11.372 46.2539C11.1892 45.5911 11.2068 44.8847 11.4222 44.233C11.6377 43.5812 12.0403 43.0167 12.574 42.6179C12.074 42.5922 11.5754 42.693 11.1197 42.9119C10.6641 43.1309 10.2646 43.4616 9.95447 43.8765C9.64438 44.2914 9.4327 44.7786 9.33705 45.2974C9.2414 45.8162 9.26457 46.3516 9.40461 46.8591C9.54464 47.3665 9.7975 47.8313 10.1421 48.2147C10.4867 48.598 10.9131 48.8889 11.3858 49.0631C11.8585 49.2372 12.3637 49.2896 12.8594 49.2159C13.3551 49.1422 13.827 48.9444 14.2357 48.6392C13.5826 48.6055 12.9558 48.3576 12.4425 47.9301C11.9292 47.5025 11.555 46.9166 11.372 46.2539Z" fill="#FB7368"/>
<path d="M100.163 61.1992C100.102 60.9684 99.9991 60.7526 99.8592 60.564C99.7193 60.3754 99.5456 60.2178 99.3479 60.1001C99.1503 59.9825 98.9326 59.9071 98.7074 59.8784C98.4822 59.8497 98.2538 59.8681 98.0353 59.9326L79.0724 65.5326L77.0302 66.1357H89.8548L91.8971 65.5326L98.9664 63.4458C99.407 63.3151 99.7806 63.0051 100.005 62.5839C100.229 62.1627 100.286 61.6646 100.163 61.1992Z" fill="#CCCCCC"/>
<path d="M86.7472 57.0166C86.6237 56.5511 86.3301 56.1565 85.931 55.9196C85.532 55.6827 85.0601 55.6227 84.6192 55.753L56.165 64.1545C55.7674 64.2734 55.4232 64.5384 55.1943 64.9017C54.9654 65.265 54.867 65.7026 54.9168 66.1357H62.2832L64.3282 65.5326L85.5504 59.2662C85.9915 59.1351 86.3652 58.8245 86.5896 58.4027C86.814 57.981 86.8706 57.4824 86.7472 57.0166Z" fill="#CCCCCC"/>
<path d="M160.001 65.5319H22.0419C21.5118 65.5325 21.0036 65.7551 20.6287 66.1508C20.2539 66.5466 20.0431 67.0831 20.0425 67.6428V153.889C20.0431 154.449 20.2539 154.985 20.6287 155.381C21.0036 155.777 21.5118 155.999 22.0419 156H160.001C160.531 155.999 161.039 155.777 161.414 155.381C161.789 154.985 161.999 154.449 162 153.889V67.6428C161.999 67.0831 161.789 66.5466 161.414 66.1509C161.039 65.7551 160.531 65.5325 160.001 65.5319ZM161.429 153.889C161.429 154.289 161.278 154.672 161.01 154.955C160.742 155.238 160.379 155.397 160.001 155.397H22.0419C21.6632 155.397 21.3 155.238 21.0322 154.955C20.7644 154.672 20.6139 154.289 20.6137 153.889V67.6428C20.6139 67.2429 20.7644 66.8595 21.0322 66.5768C21.3 66.2941 21.6632 66.1352 22.0419 66.135H160.001C160.379 66.1352 160.742 66.2941 161.01 66.5768C161.278 66.8595 161.429 67.2429 161.429 67.6428V153.889Z" fill="#3F3D56"/>
<path d="M35.4654 77.2935C34.7875 77.2935 34.1248 77.0812 33.5611 76.6836C32.9975 76.286 32.5582 75.7208 32.2987 75.0596C32.0393 74.3983 31.9715 73.6707 32.1037 72.9688C32.236 72.2668 32.5624 71.622 33.0418 71.1159C33.5211 70.6098 34.1318 70.2652 34.7967 70.1256C35.4616 69.9859 36.1508 70.0576 36.7771 70.3315C37.4034 70.6054 37.9387 71.0692 38.3153 71.6643C38.6919 72.2594 38.8929 72.959 38.8929 73.6748C38.8919 74.6342 38.5304 75.554 37.8879 76.2324C37.2453 76.9108 36.3741 77.2924 35.4654 77.2935ZM35.4654 70.6591C34.9005 70.6591 34.3482 70.836 33.8785 71.1674C33.4088 71.4987 33.0427 71.9697 32.8265 72.5207C32.6103 73.0718 32.5538 73.6781 32.664 74.2631C32.7742 74.848 33.0462 75.3854 33.4457 75.8071C33.8452 76.2288 34.3541 76.5161 34.9082 76.6324C35.4622 76.7488 36.0365 76.689 36.5584 76.4608C37.0804 76.2326 37.5264 75.846 37.8403 75.3501C38.1542 74.8542 38.3217 74.2712 38.3217 73.6748C38.3208 72.8752 38.0196 72.1087 37.4841 71.5434C36.9487 70.9781 36.2227 70.6601 35.4654 70.6591Z" fill="#FB7368"/>
<path d="M30.1378 73.6747C30.1379 72.9844 30.342 72.3114 30.7215 71.7493C31.101 71.1872 31.6372 70.7641 32.2552 70.5389C31.782 70.3665 31.2765 70.3161 30.7811 70.3917C30.2856 70.4673 29.8144 70.6668 29.4068 70.9736C28.9991 71.2804 28.6668 71.6856 28.4375 72.1554C28.2082 72.6253 28.0886 73.1462 28.0886 73.6747C28.0886 74.2033 28.2082 74.7241 28.4375 75.194C28.6668 75.6638 28.9991 76.069 29.4068 76.3758C29.8144 76.6826 30.2856 76.8821 30.7811 76.9577C31.2765 77.0334 31.782 76.9829 32.2552 76.8105C31.6372 76.5853 31.101 76.1622 30.7215 75.6001C30.342 75.038 30.1379 74.365 30.1378 73.6747Z" fill="#FB7368"/>
<path d="M49.3595 116.429C48.6779 116.429 48.0245 116.142 47.5426 115.634C47.0607 115.125 46.7896 114.435 46.7888 113.715V105.573C46.7888 104.853 47.0596 104.163 47.5417 103.654C48.0238 103.145 48.6777 102.859 49.3595 102.859C50.0413 102.859 50.6951 103.145 51.1772 103.654C51.6593 104.163 51.9301 104.853 51.9301 105.573V113.715C51.9293 114.435 51.6583 115.125 51.1763 115.633C50.6944 116.142 50.041 116.429 49.3595 116.429Z" fill="#FB7368"/>
<path d="M56.2146 116.429C55.533 116.429 54.8796 116.142 54.3977 115.634C53.9158 115.125 53.6447 114.435 53.6439 113.715V105.573C53.6439 104.853 53.9148 104.163 54.3968 103.654C54.8789 103.145 55.5328 102.859 56.2146 102.859C56.8963 102.859 57.5502 103.145 58.0323 103.654C58.5144 104.163 58.7852 104.853 58.7852 105.573V113.715C58.7844 114.435 58.5134 115.125 58.0314 115.633C57.5495 116.142 56.8961 116.429 56.2146 116.429Z" fill="#FB7368"/>
<path d="M63.0696 116.429C62.388 116.429 61.7346 116.142 61.2527 115.634C60.7708 115.125 60.4997 114.435 60.4989 113.715V105.573C60.4989 104.853 60.7697 104.163 61.2518 103.654C61.7339 103.145 62.3878 102.859 63.0696 102.859C63.7514 102.859 64.4052 103.145 64.8873 103.654C65.3694 104.163 65.6402 104.853 65.6402 105.573V113.715C65.6395 114.435 65.3684 115.125 64.8864 115.633C64.4045 116.142 63.7511 116.429 63.0696 116.429Z" fill="#FB7368"/>
<path d="M73.6378 116.429C72.9563 116.429 72.3029 116.142 71.8209 115.634C71.339 115.125 71.0679 114.435 71.0671 113.715V105.573C71.0671 104.853 71.338 104.163 71.8201 103.654C72.3022 103.145 72.956 102.859 73.6378 102.859C74.3196 102.859 74.9734 103.145 75.4555 103.654C75.9376 104.163 76.2085 104.853 76.2085 105.573V113.715C76.2077 114.435 75.9366 115.125 75.4547 115.633C74.9727 116.142 74.3193 116.429 73.6378 116.429Z" fill="#FB7368"/>
<path d="M80.493 116.429C79.8115 116.429 79.1581 116.142 78.6762 115.634C78.1942 115.125 77.9231 114.435 77.9224 113.715V105.573C77.9224 104.853 78.1932 104.163 78.6753 103.654C79.1574 103.145 79.8112 102.859 80.493 102.859C81.1748 102.859 81.8287 103.145 82.3108 103.654C82.7929 104.163 83.0637 104.853 83.0637 105.573V113.715C83.0629 114.435 82.7918 115.125 82.3099 115.633C81.828 116.142 81.1746 116.429 80.493 116.429Z" fill="#FB7368"/>
<path d="M87.348 116.429C86.6665 116.429 86.0131 116.142 85.5311 115.634C85.0492 115.125 84.7781 114.435 84.7773 113.715V105.573C84.7773 104.853 85.0482 104.163 85.5303 103.654C86.0124 103.145 86.6662 102.859 87.348 102.859C88.0298 102.859 88.6836 103.145 89.1657 103.654C89.6478 104.163 89.9187 104.853 89.9187 105.573V113.715C89.9179 114.435 89.6468 115.125 89.1649 115.633C88.6829 116.142 88.0295 116.429 87.348 116.429Z" fill="#FB7368"/>
<path d="M97.9162 116.429C97.2347 116.429 96.5813 116.142 96.0994 115.634C95.6175 115.125 95.3464 114.435 95.3456 113.715V105.573C95.3456 104.853 95.6164 104.163 96.0985 103.654C96.5806 103.145 97.2345 102.859 97.9162 102.859C98.598 102.859 99.2519 103.145 99.734 103.654C100.216 104.163 100.487 104.853 100.487 105.573V113.715C100.486 114.435 100.215 115.125 99.7331 115.633C99.2512 116.142 98.5978 116.429 97.9162 116.429Z" fill="#FB7368"/>
<path d="M104.771 116.429C104.09 116.429 103.436 116.142 102.954 115.634C102.473 115.125 102.201 114.435 102.201 113.715V105.573C102.201 104.853 102.472 104.163 102.954 103.654C103.436 103.145 104.09 102.859 104.771 102.859C105.453 102.859 106.107 103.145 106.589 103.654C107.071 104.163 107.342 104.853 107.342 105.573V113.715C107.341 114.435 107.07 115.125 106.588 115.633C106.106 116.142 105.453 116.429 104.771 116.429Z" fill="#FB7368"/>
<path d="M111.626 116.429C110.945 116.429 110.292 116.142 109.81 115.634C109.328 115.125 109.057 114.435 109.056 113.715V105.573C109.056 104.853 109.327 104.163 109.809 103.654C110.291 103.145 110.945 102.859 111.626 102.859C112.308 102.859 112.962 103.145 113.444 103.654C113.926 104.163 114.197 104.853 114.197 105.573V113.715C114.196 114.435 113.925 115.125 113.443 115.633C112.961 116.142 112.308 116.429 111.626 116.429Z" fill="#FB7368"/>
<path d="M122.195 116.429C121.513 116.429 120.86 116.142 120.378 115.634C119.896 115.125 119.625 114.435 119.624 113.715V105.573C119.624 104.853 119.895 104.163 120.377 103.654C120.859 103.145 121.513 102.859 122.195 102.859C122.876 102.859 123.53 103.145 124.012 103.654C124.494 104.163 124.765 104.853 124.765 105.573V113.715C124.765 114.435 124.493 115.125 124.012 115.633C123.53 116.142 122.876 116.429 122.195 116.429Z" fill="#FB7368"/>
<path d="M129.05 116.429C128.368 116.429 127.715 116.142 127.233 115.634C126.751 115.125 126.48 114.435 126.479 113.715V105.573C126.479 104.853 126.75 104.163 127.232 103.654C127.714 103.145 128.368 102.859 129.05 102.859C129.732 102.859 130.385 103.145 130.868 103.654C131.35 104.163 131.62 104.853 131.62 105.573V113.715C131.62 114.435 131.349 115.125 130.867 115.633C130.385 116.142 129.731 116.429 129.05 116.429Z" fill="#FB7368"/>
<path d="M135.905 116.429C135.223 116.429 134.57 116.142 134.088 115.634C133.606 115.125 133.335 114.435 133.334 113.715V105.573C133.334 104.853 133.605 104.163 134.087 103.654C134.569 103.145 135.223 102.859 135.905 102.859C136.587 102.859 137.241 103.145 137.723 103.654C138.205 104.163 138.476 104.853 138.476 105.573V113.715C138.475 114.435 138.204 115.125 137.722 115.633C137.24 116.142 136.586 116.429 135.905 116.429Z" fill="#FB7368"/>
<path d="M66.7879 146.636H29.816C29.3579 146.636 28.9186 146.444 28.5947 146.102C28.2707 145.76 28.0887 145.296 28.0887 144.812C28.0887 144.329 28.2707 143.865 28.5947 143.523C28.9186 143.181 29.3579 142.989 29.816 142.989H66.7879C67.246 142.989 67.6853 143.181 68.0093 143.523C68.3332 143.865 68.5152 144.329 68.5152 144.812C68.5152 145.296 68.3332 145.76 68.0093 146.102C67.6853 146.444 67.246 146.636 66.7879 146.636Z" fill="#E6E6E6"/>
<path d="M54.9344 138.795H41.6697C41.2116 138.795 40.7722 138.603 40.4483 138.261C40.1244 137.919 39.9424 137.455 39.9424 136.972C39.9424 136.488 40.1244 136.024 40.4483 135.682C40.7722 135.34 41.2116 135.148 41.6697 135.148H54.9344C55.3925 135.148 55.8318 135.34 56.1557 135.682C56.4797 136.024 56.6616 136.488 56.6616 136.972C56.6616 137.455 56.4797 137.919 56.1557 138.261C55.8318 138.603 55.3925 138.795 54.9344 138.795Z" fill="#E6E6E6"/>
<path d="M161.326 83.5593H20.511V84.1624H161.326V83.5593Z" fill="#3F3D56"/>
</g>
<defs>
<clipPath id="clip0_38_4">
<rect width="162" height="156" fill="white"/>
</clipPath>
</defs>
</svg>
