<svg width="179" height="149" viewBox="0 0 179 149" fill="none" xmlns="http://www.w3.org/2000/svg">
<g clip-path="url(#clip0_38_72)">
<path d="M95.7368 20.9284C101.675 16.6113 110.035 14.9563 116.577 18.3243C109.213 21.4711 103.217 27.08 99.6499 34.1587C98.2845 36.8936 97.055 40.0753 94.2377 41.3393C92.4847 42.1258 90.4157 41.9739 88.6004 41.3389C86.7851 40.7038 85.1704 39.6249 83.5781 38.5574L83.1006 38.5008C85.9342 31.7916 89.7986 25.2455 95.7368 20.9284Z" fill="#F0F0F0"/>
<path d="M116.524 18.4677C110.416 18.656 104.524 20.7336 99.6845 24.4052C98.6283 25.1774 97.7025 26.1087 96.941 27.1646C96.233 28.2168 95.8242 29.4365 95.7571 30.6968C95.6706 31.8706 95.7202 33.0812 95.3452 34.214C95.1445 34.791 94.8221 35.3197 94.3992 35.7655C93.9763 36.2113 93.4625 36.5641 92.8913 36.8008C91.4838 37.4268 89.9316 37.5178 88.4105 37.5549C86.7217 37.5961 84.9668 37.6125 83.4309 38.3951C83.2448 38.49 83.1062 38.2002 83.292 38.1056C85.9642 36.744 89.0869 37.6323 91.8955 36.822C93.206 36.4438 94.4087 35.6747 94.9349 34.3879C95.395 33.2627 95.3449 32.0142 95.4221 30.8249C95.4693 29.5945 95.8218 28.3942 96.449 27.3288C97.1534 26.2381 98.0412 25.2733 99.0746 24.4758C101.372 22.6437 103.947 21.1785 106.707 20.1339C109.85 18.9244 113.18 18.253 116.553 18.1487C116.762 18.1423 116.732 18.4614 116.524 18.4677V18.4677Z" fill="white"/>
<path d="M101.172 23.1327C100.656 22.2499 100.476 21.2155 100.664 20.2141C100.852 19.2128 101.395 18.3097 102.197 17.6661C102.359 17.5365 102.572 17.7792 102.409 17.909C101.661 18.5069 101.155 19.3482 100.982 20.281C100.809 21.2139 100.981 22.1768 101.466 22.996C101.571 23.1741 101.277 23.3098 101.172 23.1327V23.1327Z" fill="white"/>
<path d="M95.7212 30.0959C97.7581 30.6562 99.9349 30.4404 101.817 29.4914C102.004 29.3972 102.142 29.6869 101.956 29.7809C99.9955 30.7649 97.7297 30.985 95.6113 30.3973C95.4094 30.3411 95.5204 30.04 95.7212 30.0959Z" fill="white"/>
<path d="M109.834 19.3487C109.962 19.7312 110.183 20.0766 110.48 20.3539C110.776 20.6311 111.138 20.8317 111.533 20.9374C111.735 20.991 111.624 21.292 111.423 21.2388C110.987 21.12 110.588 20.8981 110.26 20.5924C109.932 20.2868 109.685 19.9067 109.54 19.4854C109.523 19.4468 109.522 19.4033 109.536 19.3637C109.551 19.3241 109.58 19.2914 109.618 19.2723C109.657 19.2544 109.702 19.2523 109.742 19.2666C109.783 19.281 109.816 19.3104 109.834 19.3487H109.834Z" fill="white"/>
<path d="M121.763 42.3891C121.636 42.3592 121.509 42.3292 121.379 42.3011C119.664 41.9074 117.919 41.6514 116.162 41.5358C116.026 41.5248 115.889 41.5156 115.753 41.5084C111.516 41.2742 107.273 41.8162 103.237 43.1067C101.632 43.6217 100.069 44.2562 98.561 45.0046C96.4791 46.0382 94.3054 47.322 92.064 47.61C91.8305 47.6426 91.5952 47.661 91.3594 47.665L83.0675 39.0785C83.0586 39.0497 83.0476 39.0226 83.0387 38.9937L82.6917 38.6658C82.7667 38.6218 82.8454 38.5778 82.9204 38.5339C82.9638 38.5082 83.0091 38.4845 83.0525 38.4588C83.082 38.4423 83.1116 38.4259 83.1373 38.4093C83.1471 38.4038 83.157 38.3983 83.1648 38.3947C83.1905 38.3781 83.2162 38.3654 83.2399 38.3507C83.6794 38.1036 84.1215 37.8592 84.5661 37.6173C84.5681 37.6155 84.5681 37.6155 84.5719 37.6155C87.9643 35.7812 91.5422 34.2094 95.2487 33.2221C95.3602 33.1924 95.4736 33.1608 95.5889 33.1351C97.2621 32.6992 98.9688 32.3986 100.692 32.2363C101.635 32.1504 102.583 32.1116 103.531 32.12C105.98 32.1464 108.409 32.5517 110.73 33.321C115.356 34.8554 119.432 37.8287 121.601 42.0639C121.656 42.1723 121.71 42.2788 121.763 42.3891Z" fill="#F0F0F0"/>
<path d="M121.634 42.4734C116.642 39.0047 110.667 37.1722 104.556 37.2362C103.24 37.227 101.931 37.4219 100.677 37.8138C99.4684 38.2344 98.3959 38.966 97.5713 39.9326C96.7841 40.8185 96.0831 41.8145 95.0907 42.4968C94.5774 42.8386 93.9966 43.0697 93.3862 43.1751C92.7758 43.2805 92.1497 43.2577 91.5489 43.1082C90.042 42.7741 88.747 41.927 87.5099 41.0554C86.1362 40.0876 84.725 39.0609 83.0199 38.7757C82.8133 38.7412 82.8799 38.4277 83.0862 38.4622C86.0528 38.9584 88.0026 41.518 90.7408 42.5351C92.0185 43.0097 93.4493 43.1082 94.6567 42.3926C95.7125 41.7668 96.4362 40.7403 97.2255 39.8364C98.0158 38.8819 99.0316 38.1324 100.184 37.6534C101.414 37.1999 102.713 36.9557 104.026 36.9311C106.981 36.8295 109.934 37.1857 112.776 37.9868C116.026 38.8834 119.095 40.3204 121.852 42.2356C122.023 42.3542 121.804 42.5913 121.634 42.4734L121.634 42.4734Z" fill="white"/>
<path d="M106.522 37.1016C106.651 36.0912 107.14 35.1586 107.902 34.4703C108.665 33.782 109.651 33.3828 110.685 33.3441C110.894 33.337 110.915 33.6566 110.706 33.6638C109.743 33.6981 108.824 34.07 108.115 34.7123C107.407 35.3547 106.955 36.2253 106.841 37.1668C106.816 37.3714 106.498 37.305 106.522 37.1016H106.522Z" fill="white"/>
<path d="M97.9104 39.4316C99.194 41.0859 101.064 42.2034 103.148 42.5611C103.354 42.5963 103.288 42.9098 103.081 42.8746C100.914 42.4984 98.9702 41.3316 97.6383 39.6072C97.5115 39.4427 97.7843 39.268 97.9104 39.4316V39.4316Z" fill="white"/>
<path d="M115.754 39.2131C115.621 39.5938 115.587 40.001 115.654 40.398C115.721 40.795 115.887 41.1694 116.137 41.4876C116.266 41.6504 115.993 41.825 115.865 41.6632C115.59 41.3104 115.407 40.8967 115.332 40.4582C115.257 40.0197 115.293 39.5699 115.435 39.1479C115.445 39.107 115.47 39.0714 115.506 39.0483C115.542 39.0253 115.585 39.0165 115.627 39.0237C115.67 39.0326 115.706 39.0574 115.73 39.0929C115.754 39.1283 115.762 39.1715 115.754 39.2131V39.2131Z" fill="white"/>
<path d="M94.1701 27.351H93.5275V10.0268C93.5275 8.71005 93.264 7.40621 92.752 6.1897C92.24 4.9732 91.4895 3.86785 90.5434 2.93678C89.5974 2.00571 88.4742 1.26714 87.2381 0.763247C86.002 0.259353 84.6772 7.09857e-07 83.3392 0H46.0443C44.7063 -2.83932e-06 43.3815 0.259344 42.1454 0.763234C40.9093 1.26712 39.7861 2.00569 38.8401 2.93676C37.894 3.86783 37.1435 4.97317 36.6315 6.18968C36.1195 7.40618 35.856 8.71002 35.856 10.0268V105.069C35.856 107.728 36.9294 110.278 38.84 112.159C40.7507 114.039 43.3421 115.096 46.0442 115.096H83.3392C86.0413 115.096 88.6327 114.039 90.5434 112.159C92.4541 110.278 93.5275 107.728 93.5275 105.069V39.6827H94.1701V27.351Z" fill="#3F3D56"/>
<path d="M83.75 2.60865H78.8818C79.1057 3.14882 79.1912 3.73489 79.1307 4.31522C79.0702 4.89555 78.8656 5.45234 78.535 5.93653C78.2043 6.42073 77.7578 6.81747 77.2346 7.0918C76.7115 7.36614 76.1278 7.50964 75.535 7.50969H54.1692C53.5765 7.50965 52.9928 7.36614 52.4696 7.0918C51.9465 6.81747 51.4999 6.42073 51.1693 5.93654C50.8387 5.45234 50.6341 4.89555 50.5736 4.31522C50.5131 3.73489 50.5986 3.14881 50.8224 2.60864H46.2755C44.2576 2.60864 42.3224 3.39754 40.8955 4.80179C39.4686 6.20604 38.667 8.11061 38.667 10.0965V104.999C38.667 105.982 38.8638 106.956 39.2462 107.865C39.6285 108.773 40.189 109.598 40.8955 110.294C41.602 110.989 42.4407 111.541 43.3638 111.917C44.287 112.293 45.2763 112.487 46.2755 112.487H83.75C84.7492 112.487 85.7386 112.293 86.6617 111.917C87.5848 111.541 88.4236 110.989 89.1301 110.294C89.8366 109.598 90.397 108.773 90.7794 107.865C91.1618 106.956 91.3586 105.982 91.3586 104.999V10.0965C91.3586 8.11061 90.5569 6.20604 89.1301 4.80179C87.7032 3.39755 85.7679 2.60865 83.75 2.60865Z" fill="white"/>
<path d="M65.733 82.0006C62.9734 82.0031 60.2404 81.4701 57.6904 80.4319C55.1404 79.3938 52.8234 77.871 50.8721 75.9506C48.9208 74.0302 47.3734 71.75 46.3185 69.2404C45.2637 66.7308 44.722 64.0411 44.7246 61.3253C44.7207 57.5118 45.7901 53.7716 47.8143 50.5198C49.8385 47.2679 52.7383 44.6313 56.1922 42.9024C58.6959 41.6488 61.4291 40.9011 64.231 40.7032C67.0328 40.5053 69.8465 40.8612 72.5064 41.7501C77.2171 43.3299 81.205 46.504 83.7599 50.7071C86.3148 54.9102 87.2709 59.8693 86.4577 64.7013C85.6446 69.5332 83.1151 73.9242 79.3198 77.0923C75.5244 80.2603 70.7096 81.9997 65.733 82.0006L65.733 82.0006ZM65.733 41.4608C62.5459 41.4516 59.4029 42.1935 56.5668 43.6245C54.0878 44.8675 51.8967 46.6014 50.131 48.7174C48.3652 50.8334 47.0631 53.2858 46.3062 55.9206C45.5493 58.5554 45.3541 61.3158 45.7327 64.0284C46.1114 66.741 47.0558 69.3473 48.5066 71.6836C49.9574 74.0199 51.8833 76.0359 54.1634 77.6049C56.4435 79.1739 59.0286 80.262 61.7563 80.801C64.4841 81.3401 67.2956 81.3183 70.0144 80.7371C72.7332 80.1559 75.3006 79.0279 77.5553 77.4238C78.6454 76.6497 79.6535 75.7694 80.5642 74.7963C83.2277 71.9601 84.9931 68.4211 85.6441 64.6126C86.2952 60.8041 85.8036 56.8914 84.2296 53.3536C82.6556 49.8159 80.0675 46.8066 76.7823 44.6942C73.497 42.5819 69.6572 41.4582 65.733 41.4608Z" fill="#F0F0F0"/>
<path d="M20.2109 42.9767C20.7876 43.0479 21.3414 43.2426 21.8333 43.5472C22.3252 43.8517 22.7433 44.2587 23.0581 44.7395C23.3729 45.2203 23.5767 45.7632 23.6552 46.3299C23.7338 46.8966 23.6851 47.4734 23.5127 48.0196L30.4927 53.7415L27.994 58.7641L18.2522 50.5473C17.339 50.2014 16.5865 49.5378 16.1373 48.6823C15.6881 47.8269 15.5733 46.8389 15.8148 45.9058C16.0562 44.9726 16.6371 44.159 17.4473 43.6191C18.2576 43.0793 19.2409 42.8507 20.211 42.9767L20.2109 42.9767Z" fill="#FFB6B6"/>
<path d="M85.4011 66.8387C85.2611 65.3577 84.6824 62.6955 84.1913 61.7111C82.6817 57.8225 72.9278 54.6266 71.618 54.2146L71.2857 50.5795L57.7332 49.1444L56.0141 53.793L51.1534 55.5876C50.8234 55.7087 50.5247 55.9002 50.2787 56.1483C50.0328 56.3964 49.8457 56.695 49.7308 57.0227L45.3699 58.2632L41.0666 59.4875L26.1164 49.1201L25.4106 49.5742L20.6927 52.6038L19.9648 53.0714L39.3118 70.2495L46.4985 68.59L51.9031 67.3387L52.3644 69.1819L51.1699 75.6575C54.6307 79.0647 59.2118 81.1469 64.0914 81.5308C68.9711 81.9146 73.8301 80.5749 77.7969 77.752L80.8671 75.071C83.0069 72.7939 84.5863 70.0633 85.4834 67.0901L85.4011 66.8387Z" fill="#E4E4E4"/>
<path d="M68.7677 46.1715C73.8837 44.5045 76.6579 39.0715 74.964 34.0366C73.2702 29.0017 67.7497 26.2715 62.6337 27.9385C57.5177 29.6055 54.7435 35.0385 56.4374 40.0734C58.1312 45.1083 63.6517 47.8385 68.7677 46.1715Z" fill="#FFB6B6"/>
<path d="M57.993 26.1072C58.9417 24.774 60.3653 23.8407 61.9809 23.493C63.5784 23.1696 65.241 23.4698 66.6179 24.33C68.1151 23.7365 69.7294 23.3427 71.3154 23.5429C72.9014 23.7431 74.4559 24.6149 75.1898 26.0513C75.3441 26.4234 75.5314 26.7814 75.7495 27.1212C76.3961 27.9701 77.5976 28.0802 78.6588 28.121C78.1223 28.429 77.5857 28.7369 77.0491 29.0448C77.5838 29.29 78.1186 29.5353 78.6535 29.7805C77.9256 30.054 77.1978 30.3274 76.47 30.6009C78.164 32.0663 78.5737 34.6744 77.9322 36.861C77.325 38.9312 75.9327 40.6739 74.378 42.1659C74.0747 41.0526 74.4083 39.8456 74.6305 38.6931C74.8652 37.4752 74.9028 36.0512 74.0363 35.1914C73.4518 34.6114 72.5945 34.4362 71.7861 34.2955C67.7083 33.5857 63.5927 33.1048 59.4594 32.855C58.9062 32.7798 58.3427 32.8364 57.8164 33.0201C56.8105 33.46 56.4064 34.6681 56.1149 35.7393C55.9753 33.8591 56.0868 31.969 56.4467 30.1173C56.7224 28.7001 57.1568 27.2817 57.993 26.1072Z" fill="#2F2E41"/>
<path d="M70.676 91.7416H59.142C58.7414 91.7416 58.3572 91.585 58.074 91.3062C57.7907 91.0275 57.6316 90.6494 57.6316 90.2551C57.6316 89.8609 57.7907 89.4828 58.074 89.204C58.3572 88.9253 58.7414 88.7687 59.142 88.7687H70.676C71.0766 88.7687 71.4608 88.9253 71.744 89.204C72.0273 89.4828 72.1864 89.8609 72.1864 90.2551C72.1864 90.6494 72.0273 91.0275 71.744 91.3062C71.4608 91.585 71.0766 91.7416 70.676 91.7416Z" fill="#FB7368"/>
<path d="M32.8287 12.1957H1.10341C0.811063 12.1952 0.530841 12.0806 0.324282 11.877C0.117724 11.6734 0.00170898 11.3975 0.00170898 11.1097C0.00170898 10.822 0.117724 10.5461 0.324282 10.3425C0.530841 10.1389 0.811063 10.0243 1.10341 10.0238H32.8287C33.1213 10.0238 33.402 10.1382 33.6089 10.3419C33.8158 10.5455 33.9321 10.8217 33.9321 11.1097C33.9321 11.3978 33.8158 11.674 33.6089 11.8776C33.402 12.0813 33.1213 12.1957 32.8287 12.1957Z" fill="#FB7368"/>
<path d="M51.1457 19.1316H1.10337C0.810737 19.1316 0.53009 19.0172 0.323168 18.8135C0.116246 18.6099 0 18.3337 0 18.0457C0 17.7577 0.116246 17.4815 0.323168 17.2779C0.53009 17.0742 0.810737 16.9598 1.10337 16.9598H51.1457C51.4384 16.9598 51.719 17.0742 51.9259 17.2779C52.1329 17.4815 52.2491 17.7577 52.2491 18.0457C52.2491 18.3337 52.1329 18.6099 51.9259 18.8135C51.719 19.0172 51.4384 19.1316 51.1457 19.1316Z" fill="#FB7368"/>
<path d="M41.5292 25.6659H1.10337C0.810738 25.6659 0.53009 25.5515 0.323168 25.3479C0.116246 25.1442 0 24.868 0 24.58C0 24.292 0.116246 24.0158 0.323168 23.8122C0.53009 23.6085 0.810738 23.4941 1.10337 23.4941H41.5292C41.8218 23.4941 42.1024 23.6085 42.3094 23.8122C42.5163 24.0158 42.6325 24.292 42.6325 24.58C42.6325 24.868 42.5163 25.1442 42.3094 25.3479C42.1024 25.5515 41.8218 25.6659 41.5292 25.6659Z" fill="#CACACA"/>
<path d="M23.8992 32.1762H1.10337C0.810738 32.1762 0.53009 32.0617 0.323168 31.8581C0.116246 31.6545 0 31.3783 0 31.0903C0 30.8023 0.116246 30.5261 0.323168 30.3224C0.53009 30.1188 0.810738 30.0044 1.10337 30.0044H23.8992C24.1918 30.0044 24.4725 30.1188 24.6794 30.3224C24.8863 30.5261 25.0026 30.8023 25.0026 31.0903C25.0026 31.3783 24.8863 31.6545 24.6794 31.8581C24.4725 32.0617 24.1918 32.1762 23.8992 32.1762Z" fill="#CACACA"/>
<path d="M36.4923 38.6858H1.10358C0.811249 38.6853 0.531055 38.5707 0.32451 38.3671C0.117964 38.1636 0.00195313 37.8876 0.00195312 37.5999C0.00195313 37.3122 0.117964 37.0363 0.32451 36.8327C0.531055 36.6291 0.811249 36.5145 1.10358 36.514H36.4923C36.7847 36.5145 37.0649 36.6291 37.2714 36.8327C37.478 37.0363 37.594 37.3122 37.594 37.5999C37.594 37.8876 37.478 38.1636 37.2714 38.3671C37.0649 38.5707 36.7847 38.6853 36.4923 38.6858Z" fill="#CACACA"/>
<path d="M136.227 144.924L133.384 144.923L132.031 134.129L136.228 134.13L136.227 144.924Z" fill="#9F616A"/>
<path d="M137.346 148.796L126.49 148.796V148.661C126.49 147.558 126.936 146.5 127.728 145.72C128.52 144.94 129.595 144.502 130.716 144.502H130.716L132.699 143.022L136.399 144.502L137.346 144.503L137.346 148.796Z" fill="#2F2E41"/>
<path d="M134.571 94.1945L133.316 79.1464L132.331 73.4982L137.847 72.2993L139.678 80.032L138.083 94.6121C138.405 95 138.601 95.4738 138.647 95.9724C138.693 96.4711 138.587 96.9719 138.341 97.4105C138.096 97.8491 137.723 98.2055 137.27 98.4339C136.817 98.6623 136.305 98.7522 135.8 98.6922C135.295 98.6321 134.82 98.4248 134.435 98.0969C134.051 97.769 133.775 97.3354 133.643 96.8519C133.51 96.3684 133.528 95.857 133.694 95.3835C133.859 94.91 134.164 94.4959 134.571 94.1945H134.571Z" fill="#9F616A"/>
<path d="M121.123 144.924L118.28 144.923L116.927 134.129L121.124 134.13L121.123 144.924Z" fill="#9F616A"/>
<path d="M116.573 97.6059L115.312 99.7518C115.312 99.7518 113.927 100.124 114.38 104.568C114.833 109.011 114.852 135.337 117.043 138.577L117.44 141.358L121.577 141.748L121.682 139.279L126.615 104.987C126.615 104.987 129.521 138.651 131.925 139.475L132.793 142.28L136.585 142.281L136.361 138.976L136.605 97.2581L116.573 97.6059Z" fill="#2F2E41"/>
<path d="M115.187 99.5883L115.1 99.5663C117.701 89.989 116.951 77.5874 115.114 64.2705L115.114 64.2153L121.755 58.2288H127.522L133.239 61.8597C136.935 63.6783 137.775 67.5297 137.783 67.5685L137.789 67.5959L135.524 75.3752L137.23 97.8729L137.232 97.899L137.222 97.9233C136.67 99.301 135.191 99.1048 133.478 98.8776C131.767 98.6507 125.465 100.726 123.533 100.726C119.757 100.726 115.457 99.6564 115.187 99.5883Z" fill="#E4E4E4"/>
<path d="M132.042 64.8919L134.52 63.8312L137.784 67.7697L140.429 80.3905L131.367 79.0391L132.042 64.8919Z" fill="#E4E4E4"/>
<path d="M93.9361 88.1646L105.262 77.9795L109.198 73.7562L113.537 77.3158L108.443 83.4727L95.75 91.154C95.635 91.6417 95.3746 92.0845 95.002 92.4255C94.6294 92.7665 94.1618 92.9901 93.6591 93.0675C93.1565 93.1449 92.6418 93.0727 92.1812 92.86C91.7205 92.6474 91.335 92.3041 91.0742 91.8742C90.8134 91.4443 90.6891 90.9474 90.7173 90.4475C90.7456 89.9476 90.925 89.4674 91.2327 89.0686C91.5404 88.6698 91.9621 88.3706 92.4439 88.2096C92.9256 88.0485 93.4453 88.0328 93.9361 88.1646L93.9361 88.1646Z" fill="#9F616A"/>
<path d="M105.015 78.0904L108.152 74.0815C108.178 74.024 110.78 68.3006 113.036 65.8138C115.35 63.2627 117.172 64.5673 117.19 64.5814L117.235 64.615L117.361 74.0355L108.676 84.2493L105.015 78.0904Z" fill="#E4E4E4"/>
<path d="M129.285 52.5899C129.753 49.7536 127.795 47.0811 124.913 46.6209C122.031 46.1606 119.316 48.0868 118.848 50.9231C118.381 53.7594 120.338 56.4318 123.22 56.8921C126.102 57.3524 128.817 55.4262 129.285 52.5899Z" fill="#9F616A"/>
<path d="M119.234 50.9842C119.234 50.9842 119.191 49.1551 118.956 48.3458C118.721 47.5365 118.251 46.8428 118.486 46.8428C118.721 46.8428 118.839 46.2647 118.839 46.2647C118.839 46.2647 119.074 46.1491 119.191 46.2647C119.309 46.3803 119.426 45.4553 119.426 45.4553C119.426 45.4553 119.544 45.1085 119.661 45.3397C119.779 45.571 119.779 45.4553 119.896 45.1085C120.014 44.7616 120.601 44.5304 120.601 44.5304C120.601 44.5304 122.833 44.646 123.186 44.1835C123.538 43.7211 127.532 44.0679 128.355 44.646C129.177 45.2241 132.819 47.3052 132.232 49.0395C131.644 50.7738 129.953 54.7669 129.53 55.1672C128.86 55.8003 128.396 56.0286 125.225 56.6494C124.605 56.7709 121.438 54.7776 121.438 54.4308C121.438 54.0839 121.819 52.9839 121.206 52.8329C120.278 52.6047 120.174 53.759 119.939 53.4122C119.704 53.0653 119.234 50.9842 119.234 50.9842Z" fill="#2F2E41"/>
<path d="M122.242 148.796L111.386 148.796V148.661C111.386 147.558 111.832 146.5 112.624 145.72C113.416 144.94 114.491 144.502 115.612 144.502H115.612L117.595 143.022L121.295 144.502L122.242 144.503L122.242 148.796Z" fill="#2F2E41"/>
<path d="M178.673 149H0.913895C0.827174 149 0.74401 148.966 0.682689 148.906C0.621367 148.845 0.586914 148.764 0.586914 148.678C0.586914 148.593 0.621367 148.511 0.682689 148.451C0.74401 148.39 0.827174 148.356 0.913895 148.356H178.673C178.76 148.356 178.843 148.39 178.904 148.451C178.966 148.511 179 148.593 179 148.678C179 148.764 178.966 148.845 178.904 148.906C178.843 148.966 178.76 149 178.673 149Z" fill="#CACACA"/>
</g>
<defs>
<clipPath id="clip0_38_72">
<rect width="179" height="149" fill="white"/>
</clipPath>
</defs>
</svg>
