<svg width="272" height="127" viewBox="0 0 272 127" fill="none" xmlns="http://www.w3.org/2000/svg">
<g clip-path="url(#clip0_38_31)">
<path d="M80.9208 104.568C79.9857 112.341 76.5471 119.453 72.8788 126.304C72.7575 126.537 72.6328 126.767 72.5049 127H34.3789C33.6078 126.788 32.8467 126.554 32.0887 126.304C27.7825 124.913 23.7171 122.791 20.0505 120.02C6.024 109.299 0.626588 89.0387 3.06448 70.8849C4.58037 59.6062 9.24595 48.0907 18.3312 42.0163C23.1281 38.8032 29.2899 37.7589 34.812 38.9529C34.9565 38.9808 35.1008 39.0156 35.2484 39.0469C39.9993 40.1817 44.2319 43.0014 46.6403 47.5442C50.9712 55.7074 48.3923 65.8199 46.263 74.9055C44.1401 83.9912 42.9883 94.8661 49.1503 101.567C47.1159 95.2142 49.124 87.6358 53.9833 83.3402C57.6547 80.0993 62.7667 78.8844 67.429 79.8904C67.8752 79.9914 68.315 80.1063 68.748 80.2455C69.7948 80.5707 70.8039 81.0191 71.7567 81.5822C79.0242 85.8884 81.9674 95.8059 80.9208 104.568Z" fill="#F2F2F2"/>
<path d="M58.3144 126.304C59.3708 126.565 60.4306 126.795 61.497 127H55.7322C54.9775 126.784 54.2261 126.554 53.4814 126.304C51.8441 125.761 50.232 125.138 48.6451 124.434C42.2798 121.601 36.4165 117.347 31.9806 111.687C29.8111 108.944 28.0395 105.874 26.7243 102.577C25.2982 98.8501 24.3919 94.9227 24.0339 90.9186C23.23 82.7032 24.0503 74.2616 25.5825 66.1924C27.1637 57.8292 29.7162 49.7062 33.1815 42.0093C33.5982 41.0869 34.0291 40.1702 34.4742 39.2593C34.5048 39.1843 34.5512 39.1177 34.6097 39.0646C34.6683 39.0116 34.7375 38.9734 34.8121 38.953C34.9635 38.9218 35.1205 38.9556 35.2485 39.0469C35.4021 39.1405 35.5161 39.293 35.5668 39.4731C35.6174 39.6532 35.601 39.8471 35.5208 40.0147C31.948 47.4071 29.2396 55.2348 27.456 63.324C25.7105 71.2156 24.7196 79.4728 25.0575 87.5872C25.379 95.169 27.2461 102.625 31.4818 108.825C35.3502 114.485 40.6917 118.948 46.601 121.987C50.3412 123.886 54.2702 125.334 58.3144 126.304Z" fill="white"/>
<path d="M70.966 127H69.2663C69.076 126.77 68.8922 126.537 68.7118 126.304C64.8405 121.313 62.2179 115.368 61.0866 109.017C59.7126 101.091 60.7814 92.9068 64.1347 85.6761C65.0702 83.6485 66.1725 81.7125 67.4289 79.8905C67.875 79.9915 68.3148 80.1063 68.7478 80.2456C65.4433 84.8907 63.2207 90.2988 62.2612 96.0288C61.4053 101.398 61.6898 106.902 63.0942 112.14C64.4985 117.378 66.9872 122.216 70.3786 126.304C70.5688 126.537 70.7657 126.77 70.966 127Z" fill="white"/>
<path d="M224.073 121.08C224.32 123.131 225.227 125.008 226.196 126.816C226.228 126.878 226.261 126.938 226.294 127H236.356C236.56 126.944 236.761 126.882 236.961 126.816C238.097 126.449 239.17 125.889 240.138 125.158C243.84 122.328 245.264 116.981 244.621 112.19C244.221 109.213 242.99 106.174 240.592 104.571C239.29 103.73 237.736 103.441 236.242 103.763C236.204 103.77 236.166 103.779 236.127 103.788C235.505 103.915 234.916 104.181 234.397 104.567C233.879 104.954 233.444 105.452 233.12 106.03C231.977 108.185 232.658 110.853 233.22 113.251C233.78 115.649 234.084 118.519 232.458 120.288C232.696 119.548 232.745 118.755 232.598 117.989C232.452 117.222 232.116 116.512 231.624 115.929C231.133 115.347 230.505 114.913 229.803 114.674C229.102 114.435 228.353 114.398 227.634 114.567C227.516 114.594 227.4 114.624 227.286 114.661C227.01 114.746 226.743 114.865 226.492 115.013C224.574 116.15 223.797 118.767 224.073 121.08Z" fill="#F2F2F2"/>
<path d="M230.04 126.816C229.761 126.885 229.481 126.946 229.2 127H230.721C230.92 126.943 231.119 126.882 231.315 126.816C231.747 126.673 232.173 126.508 232.592 126.323C234.29 125.591 235.799 124.437 236.99 122.959C237.562 122.235 238.03 121.424 238.377 120.554C238.753 119.571 238.992 118.534 239.087 117.477C239.26 115.293 239.122 113.093 238.678 110.952C238.261 108.745 237.587 106.601 236.673 104.569C236.563 104.326 236.449 104.084 236.331 103.844C236.323 103.824 236.311 103.806 236.296 103.792C236.28 103.778 236.262 103.768 236.242 103.763C236.202 103.755 236.161 103.763 236.127 103.788C236.087 103.812 236.057 103.852 236.043 103.9C236.03 103.948 236.034 103.999 236.055 104.043C236.998 105.994 237.713 108.06 238.184 110.195C238.669 112.289 238.882 114.443 238.817 116.598C238.782 118.603 238.192 120.552 237.121 122.203C236.079 123.691 234.709 124.883 233.131 125.677C232.144 126.178 231.107 126.56 230.04 126.816Z" fill="white"/>
<path d="M226.701 127H227.149C227.199 126.939 227.248 126.878 227.296 126.816C228.317 125.499 229.01 123.93 229.308 122.254C229.671 120.162 229.389 118.002 228.504 116.094C228.257 115.559 227.966 115.048 227.634 114.567C227.516 114.594 227.4 114.624 227.286 114.661C228.158 115.887 228.745 117.314 228.998 118.826C229.224 120.243 229.149 121.696 228.778 123.078C228.408 124.46 227.751 125.737 226.856 126.816C226.805 126.878 226.754 126.939 226.701 127Z" fill="white"/>
<path d="M133.378 73.9759H101.886L101.553 63.703C101.538 63.2577 101.615 62.8143 101.777 62.4034C101.94 61.9926 102.184 61.6239 102.494 61.3229C102.804 61.0219 103.171 60.7957 103.571 60.6598C103.971 60.5239 104.394 60.4815 104.811 60.5357L123.137 62.9165H123.139C125.856 62.9243 128.459 64.0743 130.379 66.1147C132.298 68.155 133.377 70.9193 133.378 73.8019V73.9759Z" fill="#FB7368"/>
<path d="M119.342 37.5361H97.3783C97.0862 37.536 96.7969 37.597 96.527 37.7156C96.2571 37.8342 96.0119 38.008 95.8053 38.2271C95.5988 38.4463 95.435 38.7064 95.3232 38.9928C95.2115 39.2791 95.154 39.586 95.1541 39.8959V63.199C95.154 63.509 95.2115 63.8158 95.3232 64.1022C95.435 64.3885 95.5988 64.6487 95.8053 64.8679C96.0119 65.087 96.2571 65.2608 96.527 65.3794C96.7969 65.4979 97.0862 65.5589 97.3783 65.5588H119.342C119.634 65.5589 119.924 65.4979 120.194 65.3794C120.464 65.2608 120.709 65.087 120.915 64.8679C121.122 64.6487 121.286 64.3885 121.397 64.1022C121.509 63.8158 121.567 63.509 121.567 63.199V39.8959C121.567 39.586 121.509 39.2791 121.397 38.9928C121.286 38.7064 121.122 38.4463 120.915 38.2271C120.709 38.008 120.464 37.8342 120.194 37.7156C119.924 37.597 119.634 37.536 119.342 37.5361Z" fill="#CCCCCC"/>
<path d="M114.396 54.9613L104.025 57.1039C103.41 57.2303 102.773 57.0925 102.254 56.721C101.734 56.3495 101.375 55.7745 101.254 55.1221L100.457 50.7791C100.338 50.1264 100.468 49.4503 100.818 48.8991C101.168 48.3479 101.71 47.9665 102.325 47.8387L112.695 45.6961C113.31 45.5698 113.947 45.7075 114.467 46.0791C114.987 46.4506 115.346 47.0256 115.466 47.678L116.264 52.021C116.383 52.6736 116.253 53.3497 115.903 53.901C115.553 54.4522 115.011 54.8335 114.396 54.9613Z" fill="#3F3D56"/>
<path d="M112.321 49.8304L104.407 51.4655C104.262 51.4955 104.112 51.4631 103.99 51.3757C103.867 51.2882 103.783 51.1528 103.755 50.9992C103.726 50.8457 103.757 50.6865 103.839 50.5567C103.922 50.427 104.049 50.3373 104.194 50.3074L112.108 48.6723C112.253 48.6423 112.403 48.6747 112.525 48.7621C112.648 48.8496 112.732 48.985 112.76 49.1386C112.789 49.2922 112.758 49.4513 112.676 49.5811C112.593 49.7108 112.466 49.8005 112.321 49.8304Z" fill="white"/>
<path d="M110.783 52.2519L106.689 53.0977C106.544 53.1276 106.394 53.0952 106.272 53.0078C106.15 52.9203 106.065 52.7849 106.037 52.6314C106.009 52.4778 106.039 52.3186 106.122 52.1889C106.204 52.0591 106.332 51.9694 106.477 51.9395L110.57 51.0938C110.642 51.079 110.716 51.0793 110.787 51.0947C110.859 51.1101 110.927 51.1403 110.987 51.1836C111.048 51.2269 111.1 51.2825 111.14 51.347C111.18 51.4116 111.208 51.484 111.222 51.5601C111.236 51.6361 111.236 51.7143 111.221 51.7903C111.207 51.8662 111.178 51.9383 111.138 52.0026C111.097 52.0668 111.044 52.1219 110.983 52.1647C110.923 52.2075 110.854 52.2371 110.783 52.2519Z" fill="white"/>
<path d="M121.567 39.8959V42.9932H95.1541V39.8959C95.154 39.586 95.2115 39.2791 95.3232 38.9928C95.435 38.7064 95.5988 38.4463 95.8053 38.2271C96.0119 38.008 96.2571 37.8342 96.527 37.7156C96.7969 37.597 97.0862 37.536 97.3783 37.5361H119.342C119.634 37.536 119.924 37.597 120.194 37.7156C120.464 37.8342 120.709 38.008 120.915 38.2271C121.122 38.4463 121.286 38.7064 121.397 38.9928C121.509 39.2791 121.567 39.586 121.567 39.8959Z" fill="#B3B3B3"/>
<path d="M174.31 43.9631C174.157 43.4409 173.899 42.9605 173.552 42.5557C173.206 42.151 172.78 41.8317 172.305 41.6205C171.83 41.4093 171.316 41.3112 170.802 41.3331C170.287 41.355 169.783 41.4965 169.325 41.7474L139.107 30.245L137.776 38.254L167.898 47.0421C168.346 47.8301 169.051 48.4162 169.88 48.6894C170.708 48.9626 171.602 48.9038 172.393 48.5243C173.183 48.1448 173.815 47.4708 174.168 46.6301C174.521 45.7895 174.572 44.8405 174.31 43.9631Z" fill="#FFB8B8"/>
<path opacity="0.2" d="M174.31 43.9631C174.157 43.4409 173.899 42.9605 173.552 42.5557C173.206 42.151 172.78 41.8317 172.305 41.6205C171.83 41.4093 171.316 41.3112 170.802 41.3331C170.287 41.355 169.783 41.4965 169.325 41.7474L139.107 30.245L137.776 38.254L167.898 47.0421C168.346 47.8301 169.051 48.4162 169.88 48.6894C170.708 48.9626 171.602 48.9038 172.393 48.5243C173.183 48.1448 173.815 47.4708 174.168 46.6301C174.521 45.7895 174.572 44.8405 174.31 43.9631Z" fill="black"/>
<path d="M144.471 31.7044L141.617 39.6135C141.536 39.8385 141.41 40.0424 141.248 40.2111C141.086 40.3798 140.891 40.5095 140.678 40.5913C140.464 40.6731 140.236 40.7051 140.01 40.6851C139.784 40.6651 139.564 40.5935 139.366 40.4754L132.431 36.3342C131.349 35.8868 130.477 35.0023 130.008 33.8744C129.539 32.7465 129.511 31.4673 129.929 30.3173C130.348 29.1673 131.179 28.2403 132.241 27.7396C133.303 27.2388 134.508 27.2051 135.593 27.6459L143.337 29.4681C143.559 29.5204 143.768 29.6227 143.949 29.7681C144.13 29.9136 144.279 30.0987 144.387 30.3109C144.494 30.5232 144.558 30.7575 144.572 30.9979C144.587 31.2384 144.552 31.4794 144.471 31.7044Z" fill="#FB7368"/>
<path d="M176.688 51.2865L165.861 56.5081L167.282 62.1861C170.028 73.1507 170.756 84.5737 169.428 95.8307L177.345 97.5849L183.907 79.8314L181.61 59.6411L176.688 51.2865Z" fill="#FB7368"/>
<path d="M197.933 77.5686C190.819 77.5686 185.022 83.0555 184.74 89.9264H211.126C210.845 83.0555 205.047 77.5686 197.933 77.5686Z" fill="#3F3D56"/>
<path d="M192.395 78.7528C192.025 47.7369 175.376 50.5903 175.376 50.5903C175.376 50.5903 175.687 60.2445 175.837 60.5447C186.446 81.8418 168.937 106.81 146.649 102.216C146.228 102.13 145.825 102.042 145.438 101.953C142.613 101.327 140.12 99.5838 138.464 97.0772C136.809 94.5705 136.115 91.4889 136.525 88.4591C138.721 69.7533 127.801 70.0843 127.801 70.0843H111.833L103.54 62.1663C103.248 61.8868 102.895 61.6877 102.513 61.5863C102.131 61.4848 101.731 61.4843 101.349 61.5846C100.967 61.6849 100.613 61.8831 100.32 62.1617C100.027 62.4404 99.8021 62.7911 99.6659 63.1831L98.5991 66.2552C98.5991 66.2552 82.85 67.9957 84.1624 84.3568H89.0315C89.0197 84.8216 89.0373 85.2868 89.084 85.7492L125.422 85.4358C127.552 85.4174 129.432 87.2486 129.441 89.5085C129.443 90.0587 129.341 90.6037 129.14 91.111C128.939 91.6182 128.644 92.0772 128.272 92.4605C127.9 92.8439 127.459 93.1437 126.975 93.342C126.491 93.5403 125.975 93.6331 125.456 93.6148L119.598 93.4076C117.793 101.936 122.223 107.68 127.103 111.292C131.698 114.643 137.151 116.42 142.727 116.383H158.643C179.313 116.383 182.922 97.933 182.922 97.933C193.75 93.0595 192.395 78.7528 192.395 78.7528Z" fill="#3F3D56"/>
<path d="M196.949 126.478C207.142 126.478 215.405 117.711 215.405 106.897C215.405 96.0824 207.142 87.3157 196.949 87.3157C186.756 87.3157 178.493 96.0824 178.493 106.897C178.493 117.711 186.756 126.478 196.949 126.478Z" fill="#3F3D56"/>
<path d="M196.949 111.696C199.447 111.696 201.472 109.547 201.472 106.897C201.472 104.246 199.447 102.097 196.949 102.097C194.451 102.097 192.425 104.246 192.425 106.897C192.425 109.547 194.451 111.696 196.949 111.696Z" fill="white"/>
<path d="M103.767 126.478C115.5 126.478 125.012 116.386 125.012 103.938C125.012 91.4893 115.5 81.3978 103.767 81.3978C92.0336 81.3978 82.522 91.4893 82.522 103.938C82.522 116.386 92.0336 126.478 103.767 126.478Z" fill="#3F3D56"/>
<path d="M103.767 109.462C106.643 109.462 108.974 106.989 108.974 103.938C108.974 100.887 106.643 98.4132 103.767 98.4132C100.891 98.4132 98.5598 100.887 98.5598 103.938C98.5598 106.989 100.891 109.462 103.767 109.462Z" fill="white"/>
<path d="M165.892 58.0508L161.996 46.8245C161.793 46.2394 161.7 45.6177 161.724 44.9947C161.747 44.3717 161.886 43.7597 162.133 43.1937C162.379 42.6276 162.728 42.1186 163.16 41.6957C163.592 41.2728 164.098 40.9443 164.649 40.7289L175.818 36.3667C176.788 35.9876 177.819 35.815 178.853 35.8587C179.886 35.9024 180.901 36.1616 181.839 36.6215C182.778 37.0814 183.622 37.733 184.324 38.539C185.025 39.345 185.57 40.2898 185.927 41.3192C186.25 42.2432 186.414 43.2207 186.413 44.2059C186.409 45.4569 186.142 46.6911 185.632 47.8189C185.122 48.9468 184.382 49.9398 183.464 50.726C182.802 51.2899 182.057 51.7354 181.26 52.045L165.892 58.0508Z" fill="#3F3D56"/>
<path d="M186.25 44.2059C186.249 45.4314 185.989 46.6411 185.489 47.7459C184.989 48.8508 184.263 49.8227 183.362 50.5902C181.981 50.2036 180.695 49.5024 179.595 48.5354C178.494 47.5684 177.606 46.3588 176.991 44.9906C176.376 43.6224 176.049 42.1285 176.033 40.6128C176.017 39.097 176.312 37.5958 176.898 36.2134C178.024 35.9537 179.19 35.9648 180.311 36.2457C181.431 36.5267 182.479 37.0704 183.376 37.837C184.272 38.6036 184.996 39.5735 185.493 40.6756C185.991 41.7777 186.249 42.984 186.25 44.2059Z" fill="#FB7368"/>
<path d="M86.9514 86.6195C89.4883 86.6195 91.5449 83.97 91.5449 80.7017C91.5449 77.4333 89.4883 74.7838 86.9514 74.7838C84.4145 74.7838 82.3579 77.4333 82.3579 80.7017C82.3579 83.97 84.4145 86.6195 86.9514 86.6195Z" fill="#FB7368"/>
<path d="M147.671 101.649H151.694L153.608 90.5806L147.67 90.5809L147.671 101.649Z" fill="#FFB8B8"/>
<path d="M146.645 100.256L154.567 100.256H154.567C155.23 100.256 155.886 100.394 156.499 100.663C157.112 100.932 157.668 101.327 158.137 101.824C158.606 102.322 158.977 102.912 159.231 103.562C159.485 104.212 159.615 104.908 159.615 105.612V105.786L146.645 105.786L146.645 100.256Z" fill="#2F2E41"/>
<path d="M152.34 97.1064C152.293 97.1064 152.246 97.104 152.199 97.0993L146.632 96.6692C146.407 96.6471 146.19 96.5704 145.997 96.445C145.804 96.3196 145.641 96.149 145.52 95.9462C145.4 95.7434 145.324 95.5139 145.3 95.2753C145.276 95.0368 145.304 94.7956 145.382 94.5704L152.832 76.8118C152.886 76.6535 152.907 76.4852 152.896 76.3175C152.885 76.1498 152.841 75.9864 152.768 75.8375C152.695 75.6868 152.592 75.5544 152.467 75.4488C152.342 75.3432 152.197 75.2669 152.042 75.2249C148.539 74.2533 139.551 71.6663 131.77 68.6394C128.436 67.3425 126.337 65.4683 125.53 63.069C124.466 59.9057 126.04 57.0209 126.107 56.8999L126.16 56.8051L133.482 57.5111L141.419 58.2274L158.813 68.1233C160.271 68.9596 161.378 70.3476 161.914 72.011C162.45 73.6743 162.376 75.491 161.707 77.099L153.687 96.178C153.571 96.4543 153.382 96.689 153.143 96.8538C152.904 97.0186 152.625 97.1063 152.34 97.1064Z" fill="#2F2E41"/>
<path d="M134.755 22.3768C139.206 22.3768 142.814 18.5489 142.814 13.8269C142.814 9.1049 139.206 5.27698 134.755 5.27698C130.304 5.27698 126.696 9.1049 126.696 13.8269C126.696 18.5489 130.304 22.3768 134.755 22.3768Z" fill="#FFB8B8"/>
<path d="M145.374 102.694H149.397L151.311 91.6249L145.374 91.6252L145.374 102.694Z" fill="#FFB8B8"/>
<path d="M144.348 101.3L152.27 101.3H152.27C152.933 101.3 153.59 101.438 154.202 101.708C154.815 101.977 155.371 102.371 155.84 102.869C156.309 103.366 156.681 103.956 156.934 104.606C157.188 105.256 157.319 105.953 157.319 106.656V106.83L144.348 106.831L144.348 101.3Z" fill="#2F2E41"/>
<path d="M150.043 98.1507C149.997 98.1507 149.95 98.1483 149.902 98.1436L144.335 97.7135C144.11 97.6914 143.893 97.6147 143.7 97.4893C143.508 97.3639 143.344 97.1933 143.224 96.9905C143.103 96.7877 143.028 96.5582 143.004 96.3196C142.98 96.0811 143.008 95.8399 143.086 95.6147L150.536 77.8561C150.589 77.6978 150.611 77.5295 150.6 77.3618C150.589 77.1941 150.545 77.0307 150.471 76.8818C150.398 76.7311 150.295 76.5987 150.17 76.4931C150.045 76.3875 149.901 76.3112 149.746 76.2692C146.243 75.2976 137.254 72.7106 129.473 69.6837C126.14 68.3868 124.04 66.5126 123.233 64.1133C122.169 60.95 123.743 58.0652 123.811 57.9442L123.864 57.8494L131.185 58.5554L139.122 59.2717L156.517 69.1676C157.974 70.0039 159.081 71.3919 159.617 73.0553C160.154 74.7186 160.079 76.5353 159.41 78.1433L151.391 97.2223C151.275 97.4986 151.086 97.7333 150.847 97.8981C150.608 98.0629 150.329 98.1506 150.043 98.1507Z" fill="#2F2E41"/>
<path d="M137.24 27.225L128.709 24.092C128.709 24.092 123.354 28.4573 125.927 39.2865C127.27 44.8747 126.879 50.7735 124.811 56.1071C124.562 56.767 124.275 57.4101 123.952 58.0326C123.952 58.0326 133.467 70.2164 142.326 61.1656L138.881 43.5861C138.881 43.5861 144.294 31.9245 137.24 27.225Z" fill="#FB7368"/>
<path d="M135.755 22.6676C134.608 20.8462 133.703 18.3206 134.966 16.5876C136.213 14.8769 138.671 15.1289 140.58 14.372C143.239 13.3177 144.781 10.0035 144.3 7.03538C143.819 4.06729 141.574 1.60684 138.898 0.600096C136.223 -0.406643 133.206 -0.0792281 130.586 1.08009C127.361 2.50723 124.595 5.26794 123.435 8.76502C122.275 12.2621 122.895 16.461 125.301 19.149C127.882 22.0307 131.931 22.7987 135.677 22.7521" fill="#2F2E41"/>
<path d="M128.259 7.13059C126.814 8.37886 124.609 7.82443 123.058 6.72891C121.506 5.6334 120.247 4.07345 118.569 3.21453C115.61 1.70028 112.032 2.70691 109.152 4.38421C106.272 6.06151 103.718 8.37875 100.676 9.695C97.634 11.0113 93.7519 11.0763 91.4483 8.59093C90.8814 10.3335 90.8351 12.2192 91.3156 13.9908C91.7962 15.7623 92.7802 17.3334 94.1334 18.4897C95.4866 19.646 97.1431 20.3312 98.8769 20.4518C100.611 20.5724 102.337 20.1225 103.821 19.1635C107.155 17.0093 108.996 12.4925 112.735 11.3034C114.803 10.6455 117.025 11.1754 119.116 11.7494C121.207 12.3234 123.387 12.9435 125.497 12.4549C127.607 11.9663 129.581 9.95441 129.313 7.6807L128.259 7.13059Z" fill="#2F2E41"/>
<path d="M173.909 43.6149C173.697 43.1166 173.384 42.6737 172.994 42.3174C172.603 41.9611 172.143 41.7001 171.647 41.5526C171.151 41.4052 170.63 41.375 170.122 41.4642C169.613 41.5534 169.129 41.7597 168.704 42.0687L137.38 34.6097L136.991 42.7318L167.904 47.5098C168.44 48.233 169.208 48.7223 170.062 48.885C170.916 49.0476 171.797 48.8723 172.537 48.3922C173.277 47.9121 173.826 47.1606 174.079 46.2801C174.331 45.3996 174.271 44.4513 173.909 43.6149Z" fill="#FFB8B8"/>
<path d="M142.872 35.3559L140.96 43.5781C140.906 43.8121 140.805 44.0308 140.663 44.2195C140.522 44.4082 140.344 44.5623 140.142 44.6714C139.939 44.7806 139.717 44.8421 139.49 44.8519C139.263 44.8617 139.037 44.8194 138.827 44.7281L131.463 41.5263C130.336 41.2249 129.367 40.4613 128.77 39.4032C128.173 38.345 127.996 37.0787 128.278 35.8822C128.559 34.6856 129.277 33.6565 130.273 33.0206C131.269 32.3847 132.462 32.1941 133.591 32.4905L141.487 33.285C141.714 33.3079 141.932 33.3821 142.129 33.5028C142.326 33.6234 142.495 33.7875 142.627 33.9841C142.758 34.1806 142.848 34.4049 142.89 34.6416C142.933 34.8783 142.927 35.122 142.872 35.3559V35.3559Z" fill="#FB7368"/>
<path d="M170.29 50.0681C171.559 50.0681 172.587 48.9771 172.587 47.6313C172.587 46.2856 171.559 45.1946 170.29 45.1946C169.022 45.1946 167.994 46.2856 167.994 47.6313C167.994 48.9771 169.022 50.0681 170.29 50.0681Z" fill="#FB7368"/>
<path d="M272 126.652C272 126.744 271.965 126.833 271.904 126.898C271.842 126.963 271.759 127 271.672 127H0.328106C0.241087 127 0.157632 126.963 0.0960998 126.898C0.034568 126.833 0 126.744 0 126.652C0 126.56 0.034568 126.471 0.0960998 126.406C0.157632 126.341 0.241087 126.304 0.328106 126.304H271.672C271.759 126.304 271.842 126.341 271.904 126.406C271.965 126.471 272 126.56 272 126.652Z" fill="#3F3D56"/>
</g>
<defs>
<clipPath id="clip0_38_31">
<rect width="272" height="127" fill="white"/>
</clipPath>
</defs>
</svg>
