<svg width="13" height="13" viewBox="0 0 13 13" fill="none" xmlns="http://www.w3.org/2000/svg">
<path d="M0.5625 12.0836C0.413315 12.0836 0.270242 12.0306 0.164752 11.9362C0.0592633 11.8417 0 11.7137 0 11.5801V0.503402C1.67349e-05 0.41591 0.0255041 0.329933 0.0739501 0.253944C0.122396 0.177954 0.192128 0.114577 0.276273 0.0700569C0.360419 0.0255372 0.456073 0.0014122 0.553807 6.01378e-05C0.651541 -0.00129193 0.747982 0.0201756 0.833624 0.0623464L12.0836 5.60071C12.1718 5.64417 12.2454 5.70803 12.2966 5.78561C12.3478 5.86319 12.3748 5.95165 12.3748 6.04177C12.3748 6.13188 12.3478 6.22034 12.2966 6.29792C12.2454 6.3755 12.1718 6.43936 12.0836 6.48282L0.833624 12.0212C0.750572 12.0621 0.657309 12.0836 0.5625 12.0836Z" fill="#DFA961"/>
</svg>
